# 3ds Max Wavefront OBJ Exporter v0.97b - (c)2007 guruware
# File Created: 26.10.2017 12:44:09

mtllib ConcreteBase.mtl

#
# object Box001
#

v  -10.0000 0.0000 -10.0000
v  -10.0000 0.0000 10.0000
v  10.0000 0.0000 -10.0000
v  10.0000 0.0000 10.0000
v  10.0000 -0.5000 10.0000
v  -10.0000 -0.5000 10.0000
v  10.0000 -0.5000 -10.0000
v  -10.0000 -0.5000 -10.0000
# 8 vertices

vn 0.0000 1.0000 -0.0000
vn 0.0000 0.0000 1.0000
vn 1.0000 0.0000 -0.0000
vn 0.0000 0.0000 -1.0000
vn -1.0000 0.0000 -0.0000
# 5 vertex normals

vt -0.2813 2.3455 1.0410
vt -0.2813 -1.3455 1.0410
vt 1.6197 2.3455 1.0410
vt 1.6197 -1.3455 1.0410
vt 1.6197 1.0410 -1.3455
vt -0.2813 1.0410 -1.3455
vt 1.6197 0.9676 -1.3455
vt -0.2813 0.9676 -1.3455
vt 2.3455 1.0410 1.6197
vt -1.3455 1.0410 1.6197
vt 2.3455 0.9676 1.6197
vt -1.3455 0.9676 1.6197
vt 1.2813 1.0410 2.3455
vt -0.6197 1.0410 2.3455
vt 1.2813 0.9676 2.3455
vt -0.6197 0.9676 2.3455
vt 2.3455 1.0410 -0.2813
vt -1.3455 1.0410 -0.2813
vt 2.3455 0.9676 -0.2813
vt -1.3455 0.9676 -0.2813
# 20 texture coords

o Box001
g Box001
usemtl ConcreteBase
s 2
f 1/1/1 2/2/1 3/3/1 
f 4/4/1 3/3/1 2/2/1 
s 8
f 4/5/2 2/6/2 5/7/2 
f 6/8/2 5/7/2 2/6/2 
s 16
f 3/9/3 4/10/3 7/11/3 
f 5/12/3 7/11/3 4/10/3 
s 32
f 1/13/4 3/14/4 8/15/4 
f 7/16/4 8/15/4 3/14/4 
s 64
f 2/17/5 1/18/5 6/19/5 
f 8/20/5 6/19/5 1/18/5 
# 10 faces

