# 3ds Max Wavefront OBJ Exporter v0.97b - (c)2007 guruware
# File Created: 26.10.2017 12:35:03

mtllib Container-Collision.mtl

#
# object Box143
#

v  -1.4037 0.0000 2.9770
v  -1.4037 0.0000 -3.0190
v  1.4278 0.0000 -3.0190
v  1.4278 0.0000 2.9770
v  -1.4037 2.7546 2.9770
v  1.4278 2.7546 2.9770
v  1.4278 2.7546 -3.0190
v  -1.4037 2.7546 -3.0190
# 8 vertices

vn 0.0000 -1.0000 -0.0000
vn 0.0000 1.0000 -0.0000
vn 0.0000 0.0000 1.0000
vn 1.0000 0.0000 -0.0000
vn 0.0000 0.0000 -1.0000
vn -1.0000 0.0000 -0.0000
# 6 vertex normals

vt 2.8315 0.0000 0.0000
vt 2.8315 5.9960 0.0000
vt 0.0000 5.9960 0.0000
vt 0.0000 0.0000 0.0000
vt 2.8315 2.7546 0.0000
vt 0.0000 2.7546 0.0000
vt 5.9960 0.0000 0.0000
vt 5.9960 2.7546 0.0000
# 8 texture coords

o Box143
g Box143
usemtl wire_088144225
s 2
f 1/1/1 2/2/1 3/3/1 
f 3/3/1 4/4/1 1/1/1 
s 4
f 5/4/2 6/1/2 7/2/2 
f 7/2/2 8/3/2 5/4/2 
s 8
f 1/4/3 4/1/3 6/5/3 
f 6/5/3 5/6/3 1/4/3 
s 16
f 4/4/4 3/7/4 7/8/4 
f 7/8/4 6/6/4 4/4/4 
s 32
f 3/4/5 2/1/5 8/5/5 
f 8/5/5 7/6/5 3/4/5 
s 64
f 2/4/6 1/7/6 5/8/6 
f 5/8/6 8/6/6 2/4/6 
# 12 faces

