# 3ds Max Wavefront OBJ Exporter v0.97b - (c)2007 guruware
# File Created: 26.10.2017 13:33:51

mtllib Crater-Collision.mtl

#
# object Box001
#

#
# object Cone001
#

v  3.2035 -0.1982 0.0461
v  2.2612 -0.1982 -2.2288
v  1.0391 0.4717 -1.0067
v  1.4752 0.4717 0.0461
v  -0.0136 -0.1982 -3.1711
v  -0.0136 0.4717 -1.4427
v  -2.2885 -0.1982 -2.2288
v  -1.0664 0.4717 -1.0067
v  -3.2308 -0.1982 0.0461
v  -1.5024 0.4717 0.0461
v  -2.2885 -0.1982 2.3209
v  -1.0664 0.4717 1.0988
v  -0.0136 -0.1982 3.2632
v  -0.0136 0.4717 1.5349
v  2.2612 -0.1982 2.3209
v  1.0391 0.4717 1.0988
v  0.7713 0.2285 -0.7389
v  1.0964 0.2285 0.0461
v  -0.0136 0.2285 -1.0640
v  -0.7985 0.2285 -0.7389
v  -1.1237 0.2285 0.0461
v  -0.7985 0.2285 0.8310
v  -0.0136 0.2285 1.1561
v  0.7713 0.2285 0.8310
v  -0.0136 0.1095 0.0461
# 25 vertices

vn 0.3614 0.9324 -0.0000
vn 0.2556 0.9324 -0.2556
vn -0.0000 0.9324 -0.3614
vn -0.2556 0.9324 -0.2556
vn -0.3614 0.9324 0.0000
vn -0.2556 0.9324 0.2556
vn 0.0000 0.9324 0.3614
vn 0.2556 0.9324 0.2556
vn -0.5404 0.8414 0.0000
vn -0.3821 0.8414 0.3821
vn -0.2697 0.9244 0.2697
vn -0.3814 0.9244 0.0000
vn 0.0000 0.8414 0.5404
vn 0.0000 0.9244 0.3814
vn 0.3821 0.8414 0.3821
vn 0.2697 0.9244 0.2697
vn 0.5404 0.8414 -0.0000
vn 0.3814 0.9244 -0.0000
vn 0.3821 0.8414 -0.3821
vn 0.2697 0.9244 -0.2697
vn -0.0000 0.8414 -0.5404
vn -0.0000 0.9244 -0.3814
vn -0.3821 0.8414 -0.3821
vn -0.2697 0.9244 -0.2697
vn 0.0000 1.0000 0.0000
# 25 vertex normals

vt 15.1604 0.0000 1.0000
vt 17.6871 0.0000 1.0000
vt 17.6871 0.6699 0.4628
vt 15.1604 0.6699 0.4628
vt -2.5267 0.0000 1.0000
vt 0.0000 0.0000 1.0000
vt 0.0000 0.6699 0.4628
vt -2.5267 0.6699 0.4628
vt 2.5267 0.0000 1.0000
vt 2.5267 0.6699 0.4628
vt 5.0535 0.0000 1.0000
vt 5.0535 0.6699 0.4628
vt 7.5802 0.0000 1.0000
vt 7.5802 0.6699 0.4628
vt 10.1069 0.0000 1.0000
vt 10.1069 0.6699 0.4628
vt 12.6336 0.0000 1.0000
vt 12.6336 0.6699 0.4628
vt 2.9776 1.4888 0.0000
vt 2.5415 2.5415 0.0000
vt 2.0152 2.0152 0.0000
vt 2.2332 1.4888 0.0000
vt 1.4888 2.9776 0.0000
vt 1.4888 2.2332 0.0000
vt 0.4361 2.5415 0.0000
vt 0.9624 2.0152 0.0000
vt 0.0000 1.4888 0.0000
vt 0.7444 1.4888 0.0000
vt 0.4361 0.4361 0.0000
vt 0.9624 0.9624 0.0000
vt 1.4888 0.0000 0.0000
vt 1.4888 0.7444 0.0000
vt 2.5415 0.4361 0.0000
vt 2.0152 0.9624 0.0000
vt 1.4888 1.4888 0.0000
# 35 texture coords

o Cone001
g Cone001
usemtl wire_088144225
s 8
f 1/1/1 2/2/2 3/3/2 
f 3/3/2 4/4/1 1/1/1 
f 2/5/2 5/6/3 6/7/3 
f 6/7/3 3/8/2 2/5/2 
f 5/6/3 7/9/4 8/10/4 
f 8/10/4 6/7/3 5/6/3 
f 7/9/4 9/11/5 10/12/5 
f 10/12/5 8/10/4 7/9/4 
f 9/11/5 11/13/6 12/14/6 
f 12/14/6 10/12/5 9/11/5 
f 11/13/6 13/15/7 14/16/7 
f 14/16/7 12/14/6 11/13/6 
f 13/15/7 15/17/8 16/18/8 
f 16/18/8 14/16/7 13/15/7 
f 15/17/8 1/1/1 4/4/1 
f 4/4/1 16/18/8 15/17/8 
s 1
f 4/19/9 3/20/10 17/21/11 
f 17/21/11 18/22/12 4/19/9 
f 3/20/10 6/23/13 19/24/14 
f 19/24/14 17/21/11 3/20/10 
f 6/23/13 8/25/15 20/26/16 
f 20/26/16 19/24/14 6/23/13 
f 8/25/15 10/27/17 21/28/18 
f 21/28/18 20/26/16 8/25/15 
f 10/27/17 12/29/19 22/30/20 
f 22/30/20 21/28/18 10/27/17 
f 12/29/19 14/31/21 23/32/22 
f 23/32/22 22/30/20 12/29/19 
f 14/31/21 16/33/23 24/34/24 
f 24/34/24 23/32/22 14/31/21 
f 16/33/23 4/19/9 18/22/12 
f 18/22/12 24/34/24 16/33/23 
f 25/35/25 18/22/12 17/21/11 
f 25/35/25 17/21/11 19/24/14 
f 25/35/25 19/24/14 20/26/16 
f 25/35/25 20/26/16 21/28/18 
f 25/35/25 21/28/18 22/30/20 
f 25/35/25 22/30/20 23/32/22 
f 25/35/25 23/32/22 24/34/24 
f 25/35/25 24/34/24 18/22/12 
# 40 faces

