# 3ds Max Wavefront OBJ Exporter v0.97b - (c)2007 guruware
# File Created: 26.10.2017 13:29:53

mtllib Crater.mtl

#
# object Box001
#

#
# object Cylinder001
#

v  -0.0253 0.1241 0.0389
v  1.5223 0.2590 0.3647
v  1.4849 0.2584 0.0389
v  1.4364 0.2685 0.6480
v  1.2968 0.2781 0.9091
v  1.1090 0.2778 1.1379
v  0.8802 0.2729 1.3257
v  0.5539 0.2904 1.4973
v  0.2706 0.3125 1.5832
v  -0.0240 0.2968 1.6123
v  -0.3199 0.2411 1.5201
v  -0.6032 0.1925 1.4341
v  -0.8642 0.1953 1.2946
v  -1.0405 0.2178 1.0373
v  -1.2283 0.2128 0.8085
v  -1.4204 0.1765 0.6168
v  -1.5064 0.1344 0.3336
v  -1.5354 0.1231 0.0389
v  -1.5064 0.1626 -0.2557
v  -1.4204 0.2086 -0.5390
v  -1.2809 0.2415 -0.8000
v  -1.0931 0.2854 -1.0289
v  -0.8642 0.2963 -1.2167
v  -0.5683 0.2709 -1.4536
v  -0.2850 0.2257 -1.5395
v  0.0096 0.1999 -1.5686
v  0.3043 0.2066 -1.5395
v  0.5526 0.2198 -1.3562
v  0.7478 0.2290 -1.1490
v  0.9766 0.2732 -0.9612
v  1.1644 0.3251 -0.7323
v  1.3699 0.3236 -0.5390
v  1.4559 0.2839 -0.2557
v  1.6705 0.3802 0.3942
v  1.6360 0.3386 0.0389
v  1.5760 0.3872 0.7058
v  1.4224 0.4082 0.9930
v  1.2158 0.3845 1.2447
v  0.8977 0.3322 1.4202
v  0.6610 0.3430 1.6692
v  0.2988 0.3994 1.6682
v  -0.0253 0.4445 1.7002
v  -0.3493 0.4232 1.6682
v  -0.6610 0.3934 1.5737
v  -0.8956 0.3998 1.3507
v  -1.1473 0.4413 1.1441
v  -1.3539 0.4716 0.8924
v  -1.5600 0.4212 0.6747
v  -1.6546 0.3474 0.3630
v  -1.6865 0.3100 0.0389
v  -1.6546 0.3524 -0.2851
v  -1.6897 0.4062 -0.6956
v  -1.4065 0.4538 -0.8840
v  -1.1999 0.4675 -1.1357
v  -0.9482 0.4570 -1.3423
v  -0.6261 0.4030 -1.5932
v  -0.3144 0.3429 -1.6877
v  0.0096 0.3357 -1.7196
v  0.3337 0.3794 -1.6877
v  0.6105 0.3726 -1.4958
v  0.8317 0.3281 -1.2746
v  1.0834 0.3573 -1.0680
v  1.2900 0.4094 -0.8163
v  1.5095 0.3875 -0.5968
v  1.6040 0.3334 -0.2851
v  1.8080 0.2978 0.4215
v  1.7762 0.2330 0.0389
v  1.7055 0.3189 0.7595
v  1.5390 0.3112 1.0709
v  1.3150 0.2725 1.3439
v  0.9756 0.2091 1.5368
v  0.7146 0.1945 1.7987
v  0.3262 0.2398 1.8058
v  -0.0253 0.3247 1.8404
v  -0.3767 0.3260 1.8058
v  -0.7146 0.2969 1.7033
v  -0.9735 0.2789 1.4673
v  -1.2465 0.2930 1.2433
v  -1.4705 0.3302 0.9703
v  -1.6896 0.3033 0.7283
v  -1.7921 0.2609 0.3904
v  -1.8267 0.2262 0.0389
v  -1.7921 0.2294 -0.3125
v  -1.8192 0.2832 -0.7493
v  -1.6528 0.3264 -1.0607
v  -1.2991 0.2938 -1.2349
v  -1.0261 0.2883 -1.4589
v  -0.6797 0.3016 -1.7227
v  -0.3418 0.2603 -1.8252
v  0.0096 0.2409 -1.8599
v  0.3611 0.3001 -1.8252
v  0.6641 0.2941 -1.6254
v  0.9096 0.2349 -1.3912
v  1.1826 0.2486 -1.1671
v  1.4066 0.2848 -0.8942
v  1.6390 0.2454 -0.6504
v  1.7416 0.2066 -0.3125
v  2.1964 0.1307 0.5035
v  2.0374 0.0595 0.0389
v  1.9468 0.2047 0.8594
v  1.7562 0.1630 1.2160
v  1.4333 0.0818 1.4975
v  1.1712 0.0708 1.8495
v  0.8146 0.0275 2.0401
v  0.3771 0.0564 2.0620
v  -0.0253 0.1676 2.1016
v  -0.4277 0.1321 2.0620
v  -0.8146 0.0804 1.9446
v  -1.1186 0.0227 1.6845
v  -1.4779 0.0374 1.5904
v  -1.6877 0.0752 1.1154
v  -1.9579 0.0814 0.7588
v  -2.1279 0.0899 0.4414
v  -2.1675 0.0849 0.0389
v  -2.0483 0.0410 -0.3635
v  -2.0606 0.0724 -0.8492
v  -1.8700 0.0943 -1.2058
v  -1.4838 0.0447 -1.4196
v  -1.1712 0.0356 -1.6761
v  -0.7797 0.1589 -1.9641
v  -0.3928 0.1104 -2.0815
v  0.0096 0.0385 -2.1211
v  0.4120 0.1298 -2.0814
v  0.7641 0.1719 -1.8667
v  1.1207 0.1248 -1.6761
v  1.3673 0.1235 -1.3518
v  1.7890 0.0990 -1.1552
v  1.8804 0.0621 -0.7504
v  1.9978 0.0506 -0.3635
v  3.0338 -0.1879 0.6728
v  2.8665 -0.1868 0.0385
v  2.8691 -0.1794 1.2157
v  2.5271 -0.1861 1.6811
v  2.0189 -0.1902 2.0848
v  1.6370 -0.1839 2.5519
v  1.1367 -0.1849 2.8193
v  0.5938 -0.1825 2.9840
v  -0.0274 -0.1754 2.9324
v  -0.5920 -0.1823 2.8768
v  -1.0759 -0.1837 2.6342
v  -1.6286 -0.1884 2.5490
v  -2.0671 -0.1936 2.1891
v  -2.4860 -0.1880 1.8286
v  -2.7011 -0.1842 1.1459
v  -3.1222 -0.1804 0.6390
v  -3.1778 -0.1782 0.0745
v  -2.8658 -0.1823 -0.5261
v  -2.7011 -0.1860 -1.0690
v  -2.5975 -0.1843 -1.6415
v  -2.2376 -0.1907 -2.0800
v  -1.6879 -0.1893 -2.1781
v  -1.1349 -0.1764 -2.6352
v  -0.5920 -0.1895 -2.7999
v  -0.0260 -0.1936 -3.1681
v  0.5386 -0.1869 -3.1125
v  1.0800 -0.1833 -2.6352
v  1.5804 -0.1823 -2.3677
v  2.1303 -0.1784 -2.0619
v  2.6944 -0.1861 -1.6234
v  2.9618 -0.1819 -1.1231
v  2.8109 -0.1828 -0.5261
# 161 vertices

vn -0.0304 0.9995 0.0005
vn -0.3992 0.9157 -0.0456
vn -0.2960 0.9537 0.0534
vn -0.3451 0.9212 -0.1798
vn -0.3330 0.9153 -0.2264
vn -0.2622 0.9318 -0.2512
vn -0.2049 0.9423 -0.2648
vn 0.0132 0.9688 -0.2473
vn -0.0516 0.8796 -0.4728
vn -0.0569 0.8176 -0.5729
vn -0.0039 0.8802 -0.4746
vn 0.1738 0.8627 -0.4749
vn 0.4084 0.7758 -0.4810
vn 0.4253 0.8618 -0.2764
vn 0.3493 0.8445 -0.4059
vn 0.4161 0.8206 -0.3918
vn 0.4454 0.8782 -0.1745
vn 0.4423 0.8960 0.0404
vn 0.4061 0.8995 0.1609
vn 0.2525 0.9240 0.2871
vn 0.3628 0.8594 0.3603
vn 0.2961 0.8687 0.3970
vn 0.3008 0.8919 0.3377
vn 0.2959 0.8950 0.3338
vn 0.1694 0.9217 0.3489
vn 0.0137 0.9145 0.4043
vn -0.1941 0.8748 0.4440
vn -0.2888 0.9037 0.3161
vn -0.2706 0.9457 0.1801
vn -0.3228 0.9398 0.1118
vn -0.2710 0.9505 0.1523
vn -0.2083 0.9524 0.2227
vn -0.2079 0.9695 0.1296
vn 0.0168 0.9974 -0.0695
vn 0.0859 0.9941 -0.0660
vn -0.0480 0.9977 -0.0477
vn -0.0148 0.9999 0.0087
vn -0.0181 0.9898 0.1415
vn -0.0664 0.9969 0.0417
vn 0.2317 0.9218 0.3108
vn 0.1008 0.9946 0.0241
vn 0.0277 0.9941 -0.1052
vn -0.0363 0.9925 -0.1166
vn -0.0428 0.9965 -0.0714
vn 0.1571 0.9670 -0.2005
vn 0.1498 0.9862 0.0698
vn 0.0778 0.9903 -0.1152
vn -0.0253 0.9849 -0.1715
vn 0.1361 0.9723 -0.1900
vn 0.1324 0.9911 -0.0122
vn 0.1167 0.9864 0.1157
vn -0.2818 0.9503 0.1321
vn 0.1774 0.9738 0.1420
vn -0.0454 0.9988 -0.0166
vn 0.0260 0.9989 -0.0398
vn 0.1128 0.9914 -0.0657
vn 0.1117 0.9937 0.0072
vn -0.0564 0.9980 0.0289
vn -0.0530 0.9975 0.0464
vn 0.0020 0.9917 0.1282
vn -0.0252 0.9994 0.0231
vn -0.0069 0.9863 -0.1649
vn 0.0494 0.9949 -0.0878
vn 0.2597 0.9638 -0.0606
vn 0.2406 0.9706 0.0114
vn 0.4644 0.8844 -0.0470
vn 0.5619 0.8115 -0.1602
vn 0.3995 0.9015 0.1663
vn 0.4091 0.8391 0.3585
vn 0.3758 0.7778 0.5038
vn 0.2410 0.8413 0.4839
vn 0.2707 0.7894 0.5510
vn 0.1772 0.7478 0.6399
vn 0.0714 0.7964 0.6005
vn -0.1604 0.8038 0.5728
vn -0.3626 0.7817 0.5074
vn -0.3947 0.7632 0.5116
vn -0.4346 0.7651 0.4752
vn -0.5314 0.7063 0.4677
vn -0.5757 0.7677 0.2813
vn -0.4935 0.8698 -0.0002
vn -0.4682 0.8806 -0.0728
vn -0.6322 0.7734 0.0454
vn -0.6624 0.7474 -0.0512
vn -0.3910 0.8159 -0.4259
vn -0.4040 0.7120 -0.5743
vn -0.4694 0.6922 -0.5481
vn -0.1998 0.8388 -0.5065
vn -0.0046 0.8490 -0.5284
vn -0.0583 0.8129 -0.5795
vn 0.0914 0.8605 -0.5011
vn 0.3346 0.8852 -0.3233
vn 0.3538 0.8905 -0.2860
vn 0.3053 0.8587 -0.4117
vn 0.4242 0.8353 -0.3496
vn 0.5733 0.7796 -0.2521
vn 0.5913 0.8015 -0.0894
vn 0.3978 0.9126 -0.0943
vn 0.4316 0.8872 -0.1629
vn 0.3398 0.9259 0.1649
vn 0.2501 0.9069 0.3390
vn 0.3306 0.8598 0.3893
vn 0.1541 0.9420 0.2980
vn 0.0954 0.9353 0.3409
vn 0.1555 0.8947 0.4188
vn 0.0841 0.8917 0.4448
vn -0.1698 0.8847 0.4341
vn -0.2940 0.8876 0.3547
vn -0.2687 0.8648 0.4243
vn -0.2024 0.9222 0.3294
vn -0.3900 0.8719 0.2960
vn -0.4046 0.8712 0.2780
vn -0.3529 0.9310 0.0934
vn -0.3151 0.9447 -0.0909
vn -0.4267 0.9025 -0.0579
vn -0.4769 0.8779 -0.0426
vn -0.3202 0.8924 -0.3180
vn -0.2327 0.8546 -0.4643
vn -0.3783 0.8505 -0.3653
vn -0.2368 0.8914 -0.3865
vn 0.0231 0.9103 -0.4133
vn -0.0130 0.9109 -0.4125
vn 0.0220 0.9000 -0.4354
vn 0.2237 0.9075 -0.3556
vn 0.2533 0.9431 -0.2156
vn 0.2241 0.9354 -0.2736
vn 0.2538 0.9552 -0.1522
vn 0.3819 0.9219 -0.0657
vn 0.3932 0.9172 -0.0639
vn 0.3330 0.9429 -0.0111
vn 0.2804 0.9584 -0.0532
vn 0.3236 0.9340 0.1516
vn 0.2664 0.9265 0.2657
vn 0.2206 0.9411 0.2562
vn 0.1854 0.9559 0.2277
vn 0.0891 0.9654 0.2452
vn 0.0365 0.9695 0.2425
vn 0.0122 0.9433 0.3319
vn -0.1141 0.9301 0.3491
vn -0.1174 0.9380 0.3261
vn -0.1330 0.9700 0.2033
vn -0.1447 0.9691 0.1998
vn -0.2043 0.9684 0.1431
vn -0.2392 0.9582 0.1572
vn -0.2478 0.9639 0.0970
vn -0.2558 0.9658 -0.0431
vn -0.2476 0.9616 -0.1180
vn -0.3270 0.9438 -0.0486
vn -0.2847 0.9471 -0.1481
vn -0.1343 0.9582 -0.2526
vn -0.1309 0.9588 -0.2520
vn -0.1974 0.9292 -0.3126
vn -0.1454 0.9214 -0.3603
vn -0.0319 0.9676 -0.2506
vn 0.0663 0.9660 -0.2501
vn 0.1927 0.9291 -0.3158
vn 0.1832 0.9316 -0.3138
vn 0.1810 0.9545 -0.2370
vn 0.2109 0.9624 -0.1713
vn 0.2373 0.9710 -0.0279
vn 0.2570 0.9663 0.0135
# 161 vertex normals

vt 0.5072 0.4788 0.1646
vt 0.7868 0.4194 0.4890
vt 0.7800 0.4788 0.4876
vt 0.7713 0.3677 0.5119
vt 0.7461 0.3200 0.5347
vt 0.7121 0.2783 0.5341
vt 0.6708 0.2440 0.5224
vt 0.6118 0.2127 0.5644
vt 0.5606 0.1970 0.6176
vt 0.5074 0.1917 0.5798
vt 0.4539 0.2086 0.4460
vt 0.4027 0.2242 0.3290
vt 0.3556 0.2497 0.3357
vt 0.3237 0.2966 0.3899
vt 0.2898 0.3384 0.3778
vt 0.2551 0.3733 0.2905
vt 0.2395 0.4250 0.1894
vt 0.2343 0.4788 0.1623
vt 0.2395 0.5325 0.2573
vt 0.2551 0.5842 0.3679
vt 0.2803 0.6319 0.4468
vt 0.3142 0.6736 0.5524
vt 0.3556 0.7079 0.5786
vt 0.4091 0.7511 0.5175
vt 0.4602 0.7668 0.4089
vt 0.5135 0.7721 0.3468
vt 0.5667 0.7668 0.3630
vt 0.6116 0.7333 0.3947
vt 0.6469 0.6955 0.4167
vt 0.6882 0.6612 0.5232
vt 0.7221 0.6195 0.6479
vt 0.7593 0.5842 0.6441
vt 0.7748 0.5325 0.5489
vt 0.8136 0.4140 0.7803
vt 0.8073 0.4788 0.6803
vt 0.7965 0.3571 0.7972
vt 0.7688 0.3047 0.8475
vt 0.7314 0.2588 0.7906
vt 0.6739 0.2268 0.6649
vt 0.6312 0.1814 0.6908
vt 0.5657 0.1815 0.8263
vt 0.5072 0.1757 0.9349
vt 0.4486 0.1815 0.8836
vt 0.3923 0.1988 0.8120
vt 0.3499 0.2395 0.8274
vt 0.3044 0.2771 0.9271
vt 0.2671 0.3231 1.0000
vt 0.2298 0.3628 0.8788
vt 0.2128 0.4197 0.7014
vt 0.2070 0.4788 0.6115
vt 0.2128 0.5379 0.7134
vt 0.2064 0.6128 0.8427
vt 0.2576 0.6472 0.9572
vt 0.2949 0.6931 0.9901
vt 0.3404 0.7308 0.9647
vt 0.3986 0.7766 0.8351
vt 0.4549 0.7938 0.6907
vt 0.5135 0.7996 0.6734
vt 0.5720 0.7938 0.7783
vt 0.6220 0.7588 0.7620
vt 0.6620 0.7184 0.6550
vt 0.7075 0.6807 0.7252
vt 0.7448 0.6348 0.8505
vt 0.7845 0.5948 0.7979
vt 0.8016 0.5379 0.6678
vt 0.8384 0.4090 0.5822
vt 0.8327 0.4788 0.4264
vt 0.8199 0.3473 0.6330
vt 0.7898 0.2905 0.6145
vt 0.7494 0.2407 0.5214
vt 0.6880 0.2055 0.3689
vt 0.6409 0.1577 0.3339
vt 0.5707 0.1564 0.4429
vt 0.5072 0.1501 0.6469
vt 0.4437 0.1564 0.6500
vt 0.3826 0.1751 0.5799
vt 0.3358 0.2182 0.5368
vt 0.2865 0.2591 0.5707
vt 0.2460 0.3089 0.6602
vt 0.2064 0.3530 0.5953
vt 0.1879 0.4147 0.4935
vt 0.1817 0.4788 0.4102
vt 0.1879 0.5429 0.4178
vt 0.1830 0.6226 0.5470
vt 0.2131 0.6794 0.6509
vt 0.2770 0.7112 0.5725
vt 0.3263 0.7521 0.5593
vt 0.3889 0.8002 0.5912
vt 0.4500 0.8189 0.4920
vt 0.5135 0.8252 0.4455
vt 0.5770 0.8189 0.5878
vt 0.6317 0.7824 0.5734
vt 0.6761 0.7397 0.4309
vt 0.7254 0.6988 0.4640
vt 0.7659 0.6490 0.5510
vt 0.8079 0.6046 0.4563
vt 0.8264 0.5429 0.3629
vt 0.9086 0.3940 0.3465
vt 0.8799 0.4788 0.2173
vt 0.8635 0.3291 0.4809
vt 0.8291 0.2640 0.4052
vt 0.7707 0.2127 0.2576
vt 0.7234 0.1485 0.2377
vt 0.6589 0.1137 0.1592
vt 0.5799 0.1097 0.2116
vt 0.5072 0.1025 0.4135
vt 0.4345 0.1097 0.3491
vt 0.3645 0.1311 0.2552
vt 0.3096 0.1786 0.1503
vt 0.2447 0.1957 0.1771
vt 0.2068 0.2824 0.2458
vt 0.1579 0.3474 0.2570
vt 0.1272 0.4054 0.2723
vt 0.1201 0.4788 0.2634
vt 0.1416 0.5522 0.1836
vt 0.1394 0.6408 0.2407
vt 0.1738 0.7059 0.2804
vt 0.2436 0.7449 0.1903
vt 0.3001 0.7917 0.1737
vt 0.3708 0.8442 0.3978
vt 0.4408 0.8656 0.3097
vt 0.5135 0.8729 0.1791
vt 0.5862 0.8656 0.3449
vt 0.6498 0.8265 0.4214
vt 0.7142 0.7917 0.3358
vt 0.7588 0.7325 0.3334
vt 0.8350 0.6967 0.2889
vt 0.8515 0.6228 0.2219
vt 0.8727 0.5522 0.2010
vt 1.0000 0.3757 0.0105
vt 0.9731 0.4788 0.0123
vt 0.9735 0.2874 0.0259
vt 0.9184 0.2118 0.0137
vt 0.8366 0.1462 0.0063
vt 0.7751 0.0702 0.0176
vt 0.6946 0.0268 0.0158
vt 0.6072 -0.0000 0.0202
vt 0.5072 0.0084 0.0331
vt 0.4163 0.0174 0.0205
vt 0.3384 0.0569 0.0181
vt 0.2494 0.0707 0.0095
vt 0.1788 0.1292 0.0000
vt 0.1114 0.1878 0.0102
vt 0.0767 0.2988 0.0171
vt 0.0090 0.3812 0.0240
vt -0.0000 0.4729 0.0280
vt 0.0502 0.5706 0.0206
vt 0.0767 0.6588 0.0139
vt 0.0934 0.7519 0.0169
vt 0.1514 0.8231 0.0052
vt 0.2399 0.8391 0.0080
vt 0.3289 0.9134 0.0313
vt 0.4163 0.9401 0.0075
vt 0.5074 1.0000 0.0000
vt 0.5983 0.9910 0.0123
vt 0.6855 0.9134 0.0188
vt 0.7660 0.8699 0.0206
vt 0.8545 0.8202 0.0276
vt 0.9454 0.7489 0.0137
vt 0.9884 0.6676 0.0213
vt 0.9641 0.5706 0.0197
# 161 texture coords

o Cylinder001
g Cylinder001
usemtl Crater
s 1
f 1/1/1 2/2/2 3/3/3 
f 1/1/1 4/4/4 2/2/2 
f 1/1/1 5/5/5 4/4/4 
f 1/1/1 6/6/6 5/5/5 
f 1/1/1 7/7/7 6/6/6 
f 1/1/1 8/8/8 7/7/7 
f 1/1/1 9/9/9 8/8/8 
f 1/1/1 10/10/10 9/9/9 
f 1/1/1 11/11/11 10/10/10 
f 1/1/1 12/12/12 11/11/11 
f 1/1/1 13/13/13 12/12/12 
f 1/1/1 14/14/14 13/13/13 
f 1/1/1 15/15/15 14/14/14 
f 1/1/1 16/16/16 15/15/15 
f 1/1/1 17/17/17 16/16/16 
f 1/1/1 18/18/18 17/17/17 
f 1/1/1 19/19/19 18/18/18 
f 1/1/1 20/20/20 19/19/19 
f 1/1/1 21/21/21 20/20/20 
f 1/1/1 22/22/22 21/21/21 
f 1/1/1 23/23/23 22/22/22 
f 1/1/1 24/24/24 23/23/23 
f 1/1/1 25/25/25 24/24/24 
f 1/1/1 26/26/26 25/25/25 
f 1/1/1 27/27/27 26/26/26 
f 1/1/1 28/28/28 27/27/27 
f 1/1/1 29/29/29 28/28/28 
f 1/1/1 30/30/30 29/29/29 
f 1/1/1 31/31/31 30/30/30 
f 1/1/1 32/32/32 31/31/31 
f 1/1/1 33/33/33 32/32/32 
f 1/1/1 3/3/3 33/33/33 
f 3/3/3 2/2/2 34/34/34 
f 34/34/34 35/35/35 3/3/3 
f 2/2/2 4/4/4 36/36/36 
f 36/36/36 34/34/34 2/2/2 
f 4/4/4 5/5/5 37/37/37 
f 37/37/37 36/36/36 4/4/4 
f 5/5/5 6/6/6 38/38/38 
f 38/38/38 37/37/37 5/5/5 
f 6/6/6 7/7/7 39/39/39 
f 39/39/39 38/38/38 6/6/6 
f 7/7/7 8/8/8 40/40/40 
f 40/40/40 39/39/39 7/7/7 
f 8/8/8 9/9/9 41/41/41 
f 41/41/41 40/40/40 8/8/8 
f 9/9/9 10/10/10 42/42/42 
f 42/42/42 41/41/41 9/9/9 
f 10/10/10 11/11/11 43/43/43 
f 43/43/43 42/42/42 10/10/10 
f 11/11/11 12/12/12 44/44/44 
f 44/44/44 43/43/43 11/11/11 
f 12/12/12 13/13/13 45/45/45 
f 45/45/45 44/44/44 12/12/12 
f 13/13/13 14/14/14 46/46/46 
f 46/46/46 45/45/45 13/13/13 
f 14/14/14 15/15/15 47/47/47 
f 47/47/47 46/46/46 14/14/14 
f 15/15/15 16/16/16 48/48/48 
f 48/48/48 47/47/47 15/15/15 
f 16/16/16 17/17/17 49/49/49 
f 49/49/49 48/48/48 16/16/16 
f 17/17/17 18/18/18 50/50/50 
f 50/50/50 49/49/49 17/17/17 
f 18/18/18 19/19/19 51/51/51 
f 51/51/51 50/50/50 18/18/18 
f 19/19/19 20/20/20 52/52/52 
f 52/52/52 51/51/51 19/19/19 
f 20/20/20 21/21/21 53/53/53 
f 53/53/53 52/52/52 20/20/20 
f 21/21/21 22/22/22 54/54/54 
f 54/54/54 53/53/53 21/21/21 
f 22/22/22 23/23/23 55/55/55 
f 55/55/55 54/54/54 22/22/22 
f 23/23/23 24/24/24 56/56/56 
f 56/56/56 55/55/55 23/23/23 
f 24/24/24 25/25/25 57/57/57 
f 57/57/57 56/56/56 24/24/24 
f 25/25/25 26/26/26 58/58/58 
f 58/58/58 57/57/57 25/25/25 
f 26/26/26 27/27/27 59/59/59 
f 59/59/59 58/58/58 26/26/26 
f 27/27/27 28/28/28 60/60/60 
f 60/60/60 59/59/59 27/27/27 
f 28/28/28 29/29/29 61/61/61 
f 61/61/61 60/60/60 28/28/28 
f 29/29/29 30/30/30 62/62/62 
f 62/62/62 61/61/61 29/29/29 
f 30/30/30 31/31/31 63/63/63 
f 63/63/63 62/62/62 30/30/30 
f 31/31/31 32/32/32 64/64/64 
f 64/64/64 63/63/63 31/31/31 
f 32/32/32 33/33/33 65/65/65 
f 65/65/65 64/64/64 32/32/32 
f 33/33/33 3/3/3 35/35/35 
f 35/35/35 65/65/65 33/33/33 
f 35/35/35 34/34/34 66/66/66 
f 66/66/66 67/67/67 35/35/35 
f 34/34/34 36/36/36 68/68/68 
f 68/68/68 66/66/66 34/34/34 
f 36/36/36 37/37/37 69/69/69 
f 69/69/69 68/68/68 36/36/36 
f 37/37/37 38/38/38 70/70/70 
f 70/70/70 69/69/69 37/37/37 
f 38/38/38 39/39/39 71/71/71 
f 71/71/71 70/70/70 38/38/38 
f 39/39/39 40/40/40 72/72/72 
f 72/72/72 71/71/71 39/39/39 
f 40/40/40 41/41/41 73/73/73 
f 73/73/73 72/72/72 40/40/40 
f 41/41/41 42/42/42 74/74/74 
f 74/74/74 73/73/73 41/41/41 
f 42/42/42 43/43/43 75/75/75 
f 75/75/75 74/74/74 42/42/42 
f 43/43/43 44/44/44 76/76/76 
f 76/76/76 75/75/75 43/43/43 
f 44/44/44 45/45/45 77/77/77 
f 77/77/77 76/76/76 44/44/44 
f 45/45/45 46/46/46 78/78/78 
f 78/78/78 77/77/77 45/45/45 
f 46/46/46 47/47/47 79/79/79 
f 79/79/79 78/78/78 46/46/46 
f 47/47/47 48/48/48 80/80/80 
f 80/80/80 79/79/79 47/47/47 
f 48/48/48 49/49/49 81/81/81 
f 81/81/81 80/80/80 48/48/48 
f 49/49/49 50/50/50 82/82/82 
f 82/82/82 81/81/81 49/49/49 
f 50/50/50 51/51/51 83/83/83 
f 83/83/83 82/82/82 50/50/50 
f 51/51/51 52/52/52 84/84/84 
f 84/84/84 83/83/83 51/51/51 
f 52/52/52 53/53/53 85/85/85 
f 85/85/85 84/84/84 52/52/52 
f 53/53/53 54/54/54 86/86/86 
f 86/86/86 85/85/85 53/53/53 
f 54/54/54 55/55/55 87/87/87 
f 87/87/87 86/86/86 54/54/54 
f 55/55/55 56/56/56 88/88/88 
f 88/88/88 87/87/87 55/55/55 
f 56/56/56 57/57/57 89/89/89 
f 89/89/89 88/88/88 56/56/56 
f 57/57/57 58/58/58 90/90/90 
f 90/90/90 89/89/89 57/57/57 
f 58/58/58 59/59/59 91/91/91 
f 91/91/91 90/90/90 58/58/58 
f 59/59/59 60/60/60 92/92/92 
f 92/92/92 91/91/91 59/59/59 
f 60/60/60 61/61/61 93/93/93 
f 93/93/93 92/92/92 60/60/60 
f 61/61/61 62/62/62 94/94/94 
f 94/94/94 93/93/93 61/61/61 
f 62/62/62 63/63/63 95/95/95 
f 95/95/95 94/94/94 62/62/62 
f 63/63/63 64/64/64 96/96/96 
f 96/96/96 95/95/95 63/63/63 
f 64/64/64 65/65/65 97/97/97 
f 97/97/97 96/96/96 64/64/64 
f 65/65/65 35/35/35 67/67/67 
f 67/67/67 97/97/97 65/65/65 
f 67/67/67 66/66/66 98/98/98 
f 98/98/98 99/99/99 67/67/67 
f 66/66/66 68/68/68 100/100/100 
f 100/100/100 98/98/98 66/66/66 
f 68/68/68 69/69/69 101/101/101 
f 101/101/101 100/100/100 68/68/68 
f 69/69/69 70/70/70 102/102/102 
f 102/102/102 101/101/101 69/69/69 
f 70/70/70 71/71/71 103/103/103 
f 103/103/103 102/102/102 70/70/70 
f 71/71/71 72/72/72 104/104/104 
f 104/104/104 103/103/103 71/71/71 
f 72/72/72 73/73/73 105/105/105 
f 105/105/105 104/104/104 72/72/72 
f 73/73/73 74/74/74 106/106/106 
f 106/106/106 105/105/105 73/73/73 
f 74/74/74 75/75/75 107/107/107 
f 107/107/107 106/106/106 74/74/74 
f 75/75/75 76/76/76 108/108/108 
f 108/108/108 107/107/107 75/75/75 
f 76/76/76 77/77/77 109/109/109 
f 109/109/109 108/108/108 76/76/76 
f 77/77/77 78/78/78 110/110/110 
f 110/110/110 109/109/109 77/77/77 
f 78/78/78 79/79/79 111/111/111 
f 111/111/111 110/110/110 78/78/78 
f 79/79/79 80/80/80 112/112/112 
f 112/112/112 111/111/111 79/79/79 
f 80/80/80 81/81/81 113/113/113 
f 113/113/113 112/112/112 80/80/80 
f 81/81/81 82/82/82 114/114/114 
f 114/114/114 113/113/113 81/81/81 
f 82/82/82 83/83/83 115/115/115 
f 115/115/115 114/114/114 82/82/82 
f 83/83/83 84/84/84 116/116/116 
f 116/116/116 115/115/115 83/83/83 
f 84/84/84 85/85/85 117/117/117 
f 117/117/117 116/116/116 84/84/84 
f 85/85/85 86/86/86 118/118/118 
f 118/118/118 117/117/117 85/85/85 
f 86/86/86 87/87/87 119/119/119 
f 119/119/119 118/118/118 86/86/86 
f 87/87/87 88/88/88 120/120/120 
f 120/120/120 119/119/119 87/87/87 
f 88/88/88 89/89/89 121/121/121 
f 121/121/121 120/120/120 88/88/88 
f 89/89/89 90/90/90 122/122/122 
f 122/122/122 121/121/121 89/89/89 
f 90/90/90 91/91/91 123/123/123 
f 123/123/123 122/122/122 90/90/90 
f 91/91/91 92/92/92 124/124/124 
f 124/124/124 123/123/123 91/91/91 
f 92/92/92 93/93/93 125/125/125 
f 125/125/125 124/124/124 92/92/92 
f 93/93/93 94/94/94 126/126/126 
f 126/126/126 125/125/125 93/93/93 
f 94/94/94 95/95/95 127/127/127 
f 127/127/127 126/126/126 94/94/94 
f 95/95/95 96/96/96 128/128/128 
f 128/128/128 127/127/127 95/95/95 
f 96/96/96 97/97/97 129/129/129 
f 129/129/129 128/128/128 96/96/96 
f 97/97/97 67/67/67 99/99/99 
f 99/99/99 129/129/129 97/97/97 
f 99/99/99 98/98/98 130/130/130 
f 130/130/130 131/131/131 99/99/99 
f 98/98/98 100/100/100 132/132/132 
f 132/132/132 130/130/130 98/98/98 
f 100/100/100 101/101/101 133/133/133 
f 133/133/133 132/132/132 100/100/100 
f 101/101/101 102/102/102 134/134/134 
f 134/134/134 133/133/133 101/101/101 
f 102/102/102 103/103/103 135/135/135 
f 135/135/135 134/134/134 102/102/102 
f 103/103/103 104/104/104 136/136/136 
f 136/136/136 135/135/135 103/103/103 
f 104/104/104 105/105/105 137/137/137 
f 137/137/137 136/136/136 104/104/104 
f 105/105/105 106/106/106 138/138/138 
f 138/138/138 137/137/137 105/105/105 
f 106/106/106 107/107/107 139/139/139 
f 139/139/139 138/138/138 106/106/106 
f 107/107/107 108/108/108 140/140/140 
f 140/140/140 139/139/139 107/107/107 
f 108/108/108 109/109/109 141/141/141 
f 141/141/141 140/140/140 108/108/108 
f 109/109/109 110/110/110 142/142/142 
f 142/142/142 141/141/141 109/109/109 
f 110/110/110 111/111/111 143/143/143 
f 143/143/143 142/142/142 110/110/110 
f 111/111/111 112/112/112 144/144/144 
f 144/144/144 143/143/143 111/111/111 
f 112/112/112 113/113/113 145/145/145 
f 145/145/145 144/144/144 112/112/112 
f 113/113/113 114/114/114 146/146/146 
f 146/146/146 145/145/145 113/113/113 
f 114/114/114 115/115/115 147/147/147 
f 147/147/147 146/146/146 114/114/114 
f 115/115/115 116/116/116 148/148/148 
f 148/148/148 147/147/147 115/115/115 
f 116/116/116 117/117/117 149/149/149 
f 149/149/149 148/148/148 116/116/116 
f 117/117/117 118/118/118 150/150/150 
f 150/150/150 149/149/149 117/117/117 
f 118/118/118 119/119/119 151/151/151 
f 151/151/151 150/150/150 118/118/118 
f 119/119/119 120/120/120 152/152/152 
f 152/152/152 151/151/151 119/119/119 
f 120/120/120 121/121/121 153/153/153 
f 153/153/153 152/152/152 120/120/120 
f 121/121/121 122/122/122 154/154/154 
f 154/154/154 153/153/153 121/121/121 
f 122/122/122 123/123/123 155/155/155 
f 155/155/155 154/154/154 122/122/122 
f 123/123/123 124/124/124 156/156/156 
f 156/156/156 155/155/155 123/123/123 
f 124/124/124 125/125/125 157/157/157 
f 157/157/157 156/156/156 124/124/124 
f 125/125/125 126/126/126 158/158/158 
f 158/158/158 157/157/157 125/125/125 
f 126/126/126 127/127/127 159/159/159 
f 159/159/159 158/158/158 126/126/126 
f 127/127/127 128/128/128 160/160/160 
f 160/160/160 159/159/159 127/127/127 
f 128/128/128 129/129/129 161/161/161 
f 161/161/161 160/160/160 128/128/128 
f 129/129/129 99/99/99 131/131/131 
f 131/131/131 161/161/161 129/129/129 
# 288 faces

