# 3ds Max Wavefront OBJ Exporter v0.97b - (c)2007 guruware
# File Created: 26.10.2017 13:02:12

mtllib Dirt-Collision.mtl

#
# object Box001
#

#
# object Plane002
#

v  -5.5996 -0.3696 5.3613
v  -2.1848 0.0000 6.2908
v  -2.1848 0.3669 1.8032
v  -6.6951 -0.0900 0.2761
v  1.8653 -0.3182 6.2908
v  2.4929 0.4961 0.9510
v  5.4770 0.0000 5.5936
v  6.3733 0.0000 1.8032
v  -4.1790 0.4616 -3.4704
v  -6.6951 -0.0658 -2.4350
v  0.8619 -0.1308 -3.9853
v  6.3733 0.0000 -2.4350
v  -2.1848 0.0000 -6.4690
v  -5.5954 -0.2271 -5.4640
v  0.1635 -0.0779 -6.4690
v  5.5367 0.0000 -5.6053
# 16 vertices

vn -0.1284 0.9884 0.0813
vn -0.0389 0.9937 0.1048
vn -0.0510 0.9980 0.0370
vn -0.1405 0.9883 0.0591
vn 0.0465 0.9912 0.1237
vn 0.0379 0.9992 0.0121
vn -0.0919 0.9955 -0.0217
vn 0.0730 0.9960 0.0517
vn -0.1384 0.9790 -0.1497
vn -0.2017 0.9778 -0.0573
vn 0.0327 0.9989 -0.0340
vn 0.0330 0.9985 -0.0426
vn -0.0227 0.9888 -0.1474
vn -0.0914 0.9921 -0.0860
vn 0.0478 0.9986 -0.0212
vn -0.0239 0.9996 0.0117
# 16 vertex normals

vt 0.0000 0.0000 0.0000
vt 4.0501 0.0000 0.0000
vt 4.0501 4.2382 0.0000
vt 0.0000 4.2382 0.0000
vt 8.1002 0.0000 0.0000
vt 8.1002 4.2382 0.0000
vt 12.1503 0.0000 0.0000
vt 12.1503 4.2382 0.0000
vt 4.0501 8.4764 0.0000
vt 0.0000 8.4764 0.0000
vt 8.1002 8.4764 0.0000
vt 12.1503 8.4764 0.0000
vt 4.0501 12.7146 0.0000
vt 0.0000 12.7146 0.0000
vt 8.1002 12.7146 0.0000
vt 12.1503 12.7146 0.0000
# 16 texture coords

o Plane002
g Plane002
usemtl wire_088144225
s 1
f 1/1/1 2/2/2 3/3/3 
f 3/3/3 4/4/4 1/1/1 
f 2/2/2 5/5/5 6/6/6 
f 6/6/6 3/3/3 2/2/2 
f 5/5/5 7/7/7 8/8/8 
f 8/8/8 6/6/6 5/5/5 
f 4/4/4 3/3/3 9/9/9 
f 9/9/9 10/10/10 4/4/4 
f 3/3/3 6/6/6 11/11/11 
f 11/11/11 9/9/9 3/3/3 
f 6/6/6 8/8/8 12/12/12 
f 12/12/12 11/11/11 6/6/6 
f 10/10/10 9/9/9 13/13/13 
f 13/13/13 14/14/14 10/10/10 
f 9/9/9 11/11/11 15/15/15 
f 15/15/15 13/13/13 9/9/9 
f 11/11/11 12/12/12 16/16/16 
f 16/16/16 15/15/15 11/11/11 
# 18 faces

