# 3ds Max Wavefront OBJ Exporter v0.97b - (c)2007 guruware
# File Created: 26.10.2017 12:05:13

mtllib Hovel-Collision.mtl

#
# object Box001
#

v  4.8911 3.5299 3.3532
v  4.8911 5.3608 0.0480
v  -0.0047 4.3051 0.0480
v  -4.7301 5.3608 0.0480
v  -4.7301 3.5299 3.3532
v  -4.7301 0.0000 3.3532
v  4.8911 0.0000 3.3532
v  4.8911 0.0000 -3.2572
v  4.8911 3.3616 -3.2572
v  -4.7301 0.0000 -3.2572
v  -4.7301 3.3616 -3.2572
# 11 vertices

vn -0.0803 0.9131 0.3997
vn -0.2108 0.9774 -0.0175
vn 0.1382 0.9901 -0.0250
vn 0.0524 0.9984 -0.0191
vn 0.0000 0.8747 0.4846
vn 0.0000 0.0000 1.0000
vn 1.0000 0.0000 -0.0000
vn 0.0000 0.0000 -1.0000
vn -1.0000 0.0000 -0.0000
vn -0.0773 0.8963 -0.4367
vn 0.0000 0.8557 -0.5176
# 11 vertex normals

vt 9.6212 0.0000 0.0000
vt 9.6212 3.3052 0.0000
vt 4.7254 3.3052 0.0000
vt 0.0000 3.3052 0.0000
vt 0.0000 0.0000 0.0000
vt 9.6212 5.5844 0.0000
vt 0.0000 5.5844 0.0000
vt 6.6104 0.0000 0.0000
vt 6.6104 5.5844 0.0000
vt 3.3052 5.5844 0.0000
vt 9.6212 6.6104 0.0000
vt 0.0000 6.6104 0.0000
# 12 texture coords

o Box001
g Box001
usemtl wire_088144225
s 4
f 1/1/1 2/2/2 3/3/3 
f 1/1/1 3/3/3 4/4/4 
f 5/5/5 1/1/1 4/4/4 
s 8
f 6/5/6 7/1/6 1/6/6 
f 1/6/6 5/7/6 6/5/6 
s 16
f 7/5/7 8/8/7 9/9/7 
f 7/5/7 9/9/7 2/10/7 
f 7/5/7 2/10/7 1/7/7 
s 32
f 8/5/8 10/1/8 11/6/8 
f 11/6/8 9/7/8 8/5/8 
s 64
f 10/5/9 6/8/9 5/9/9 
f 10/5/9 5/9/9 4/10/9 
f 10/5/9 4/10/9 11/7/9 
s 4
f 9/11/10 11/12/11 4/4/4 
f 9/11/10 4/4/4 3/3/3 
f 2/2/2 9/11/10 3/3/3 
# 16 faces

