# 3ds Max Wavefront OBJ Exporter v0.97b - (c)2007 guruware
# File Created: 26.10.2017 11:44:46

mtllib Collision-Truck.mtl

#
# object Box001
#

v  -4.6490 0.0000 1.4655
v  -4.6490 0.0000 -1.7188
v  4.1572 0.0000 -1.7188
v  4.8061 0.4599 -0.1266
v  4.1572 0.0000 1.4655
v  1.4902 3.2423 1.4655
v  1.4902 3.2423 -1.7188
v  -4.6490 2.6844 -1.7188
v  -4.6490 2.6844 1.4655
v  4.2254 2.2999 1.4655
v  4.5596 1.8335 -0.1266
v  4.2254 2.2999 -1.7188
# 12 vertices

vn 0.0104 -0.9999 -0.0018
vn 0.0000 -1.0000 -0.0000
vn 0.0727 -0.9769 0.2010
vn 0.0517 -0.9985 0.0188
vn 0.0000 -0.9607 -0.2775
vn 0.1203 0.9927 -0.0000
vn -0.0905 0.9959 -0.0000
vn 0.0000 0.0000 1.0000
vn 0.9913 0.1139 -0.0654
vn 0.9905 0.1154 -0.0754
vn 0.9579 0.0592 0.2810
vn 0.9284 -0.0275 0.3705
vn 0.0000 0.0000 -1.0000
vn -1.0000 0.0000 -0.0000
vn 0.9504 0.0570 -0.3058
vn 0.9765 -0.0290 -0.2134
vn 0.4254 0.9050 -0.0000
vn 0.8128 0.5825 -0.0000
# 18 vertex normals

vt 1.0000 0.0000 0.0000
vt 1.0000 3.1843 0.0000
vt -8.2522 3.1843 0.0000
vt -8.2522 1.5922 0.0000
vt -8.2522 0.0000 0.0000
vt 4.8231 0.0000 0.0000
vt 4.8231 3.1843 0.0000
vt 0.0000 3.1843 0.0000
vt 0.0000 0.0000 0.0000
vt 9.2522 0.0000 0.0000
vt 9.2522 3.2155 0.0000
vt 4.8231 3.2155 0.0000
vt 0.0000 3.2155 0.0000
vt 1.5922 0.0000 0.0000
vt 1.5922 3.2155 0.0000
vt 4.4292 3.2155 0.0000
vt 3.1843 0.0000 0.0000
vt 3.1843 3.2155 0.0000
vt 9.2522 1.5922 0.0000
vt 9.2522 3.1843 0.0000
# 20 texture coords

o Box001
g Box001
usemtl wire_088144225
s 2
f 1/1/1 2/2/2 3/3/3 
f 1/1/1 3/3/3 4/4/4 
f 1/1/1 4/4/4 5/5/5 
s 4
f 6/6/6 7/7/6 8/8/7 
f 8/8/7 9/9/7 6/6/6 
s 8
f 1/9/8 5/10/8 10/11/8 
f 1/9/8 10/11/8 6/12/8 
f 1/9/8 6/12/8 9/13/8 
s 16
f 4/14/9 11/15/10 10/13/11 
f 10/13/11 5/9/12 4/14/9 
s 32
f 3/9/13 2/10/13 8/11/13 
f 3/9/13 8/11/13 7/16/13 
f 3/9/13 7/16/13 12/13/13 
s 64
f 2/9/14 1/17/14 9/18/14 
f 9/18/14 8/13/14 2/9/14 
s 16
f 3/17/15 12/18/16 11/15/10 
f 11/15/10 4/14/9 3/17/15 
s 4
f 10/10/17 11/19/18 12/20/17 
f 10/10/17 12/20/17 7/7/6 
f 6/6/6 10/10/17 7/7/6 
# 20 faces

