# 3ds Max Wavefront OBJ Exporter v0.97b - (c)2007 guruware
# File Created: 16.11.2017 13:09:39

mtllib WalkerLowerLeg.mtl

#
# object Line004
#

v  0.0758 -0.1427 -0.2990
v  0.0758 -0.1434 -0.3397
v  -0.0723 -0.1434 -0.3397
v  -0.0723 -0.1427 -0.2990
v  0.0758 -0.1486 -0.3825
v  -0.0723 -0.1486 -0.3826
v  0.0758 -0.1628 -0.4299
v  -0.0723 -0.1628 -0.4299
v  0.0758 -0.1904 -0.4840
v  -0.0723 -0.1904 -0.4840
v  0.0758 -0.2329 -0.5499
v  -0.0723 -0.2329 -0.5499
v  0.0758 -0.3007 -0.6241
v  -0.0723 -0.3007 -0.6241
v  -0.0723 -0.4599 -0.7833
v  0.0758 -0.4599 -0.7833
v  0.0758 -0.3156 -0.1261
v  -0.0723 -0.3156 -0.1261
v  -0.0723 -0.7485 -0.4608
v  0.0758 -0.7485 -0.4608
v  0.0418 -0.1621 0.0425
v  0.0758 -0.1621 0.0425
v  0.0758 -0.1001 0.0956
v  0.0418 -0.1001 0.0956
v  0.0758 -0.0426 0.1198
v  0.0418 -0.0426 0.1198
v  0.0758 0.0113 0.1208
v  0.0418 0.0113 0.1208
v  0.0758 0.0624 0.1044
v  0.0418 0.0624 0.1044
v  0.0758 0.1117 0.0763
v  0.0758 0.1600 0.0425
v  0.0418 0.1600 0.0425
v  0.0418 0.1117 0.0763
v  -0.0723 -0.1001 0.0956
v  -0.0723 -0.1621 0.0425
v  -0.0385 -0.1621 0.0425
v  -0.0385 -0.1001 0.0956
v  -0.0385 -0.0426 0.1198
v  -0.0723 -0.0426 0.1198
v  -0.0723 0.0113 0.1208
v  -0.0385 0.0113 0.1208
v  -0.0723 0.0624 0.1044
v  -0.0385 0.0624 0.1044
v  -0.0723 0.1600 0.0425
v  -0.0723 0.1117 0.0763
v  -0.0385 0.1117 0.0763
v  -0.0385 0.1600 0.0425
v  -0.0385 -0.1538 -0.2714
v  -0.0385 -0.2513 -0.0468
v  0.0418 -0.2513 -0.0468
v  0.0418 -0.1538 -0.2714
v  0.0758 -0.5126 -0.7825
v  -0.0723 -0.5126 -0.7825
v  0.0758 -0.5753 -0.7695
v  -0.0723 -0.5753 -0.7695
v  0.0758 -0.6303 -0.7448
v  -0.0723 -0.6303 -0.7448
v  0.0758 -0.6763 -0.7090
v  -0.0723 -0.6763 -0.7090
v  0.0758 -0.7121 -0.6630
v  -0.0723 -0.7121 -0.6630
v  0.0758 -0.7368 -0.6080
v  -0.0723 -0.7368 -0.6080
v  0.0758 -0.7498 -0.5452
v  -0.0723 -0.7498 -0.5452
v  0.0758 -0.7509 -0.4763
v  -0.0723 -0.7509 -0.4763
v  0.1283 -0.2543 -0.1151
v  0.1508 0.1007 0.1829
v  0.1264 0.0749 0.2150
v  0.1076 -0.2762 -0.0879
v  0.1370 0.1043 0.1785
v  0.1148 0.0808 0.2076
v  0.1166 -0.2513 -0.1188
v  0.0978 -0.2712 -0.0941
v  0.0908 0.0547 0.2400
v  0.0774 -0.2933 -0.0667
v  0.0826 0.0625 0.2302
v  0.0704 -0.2867 -0.0749
v  0.0472 0.0421 0.2556
v  0.0405 -0.3040 -0.0535
v  0.0431 0.0511 0.2444
v  0.0370 -0.2963 -0.0630
v  -0.0003 0.0383 0.2604
v  0.0002 -0.3072 -0.0494
v  0.0000 0.0476 0.2487
v  0.0005 -0.2993 -0.0593
v  -0.0475 0.0434 0.2539
v  -0.0398 -0.3029 -0.0548
v  -0.0428 0.0523 0.2429
v  -0.0358 -0.2953 -0.0642
v  -0.0902 0.0572 0.2369
v  -0.0759 -0.2912 -0.0693
v  -0.0814 0.0648 0.2275
v  -0.0685 -0.2848 -0.0773
v  -0.1243 0.0783 0.2107
v  -0.1049 -0.2733 -0.0915
v  -0.1124 0.0839 0.2037
v  -0.0947 -0.2686 -0.0974
v  -0.1470 0.1048 0.1778
v  -0.1241 -0.2508 -0.1194
v  -0.1329 0.1080 0.1739
v  -0.1121 -0.2482 -0.1227
v  -0.0377 -0.0533 -0.0958
v  -0.0377 -0.0678 -0.1500
v  -0.0377 -0.1221 -0.1646
v  -0.0377 -0.1618 -0.1249
v  -0.0377 -0.1473 -0.0706
v  -0.0377 -0.0930 -0.0560
v  0.0342 -0.1618 -0.1249
v  0.0342 -0.1473 -0.0706
v  0.0342 -0.1221 -0.1646
v  0.0342 -0.0678 -0.1500
v  0.0342 -0.0533 -0.0958
v  0.0342 -0.0930 -0.0560
# 116 vertices

vn 0.0000 0.9998 -0.0183
vn 0.0000 0.9976 -0.0697
vn 0.0000 0.9789 -0.2045
vn 0.0000 0.9282 -0.3721
vn 0.0000 0.8668 -0.4987
vn 0.0000 0.7921 -0.6104
vn 0.0000 0.7227 -0.6912
vn 0.0000 0.7071 -0.7071
vn 0.0000 -0.6117 0.7911
vn 0.0000 -0.6510 0.7591
vn 0.0000 -0.5257 0.8507
vn 0.0000 -0.2066 0.9784
vn 0.0000 0.1461 0.9893
vn 0.0000 0.4025 0.9154
vn 0.0000 0.5344 0.8452
vn 0.0000 0.5732 0.8194
vn 0.0000 0.9173 0.3982
vn 0.0000 -0.0149 -0.9999
vn 0.0000 -0.1096 -0.9940
vn 0.0000 -0.3083 -0.9513
vn 0.0000 -0.5156 -0.8568
vn 0.0000 -0.7071 -0.7071
vn 0.0000 -0.8568 -0.5156
vn 0.0000 -0.9513 -0.3083
vn 0.0000 -0.9940 -0.1096
vn 0.0000 -0.9978 0.0669
vn 0.0000 -0.9889 0.1483
vn 1.0000 0.0000 -0.0000
vn -1.0000 0.0000 -0.0000
vn 0.0382 0.7086 -0.7045
vn 0.3131 0.9495 -0.0213
vn 0.4725 0.8497 -0.2342
vn -0.3114 0.9500 -0.0214
vn -0.4713 0.8498 -0.2363
vn -0.0382 0.7087 -0.7045
vn -0.0934 -0.7497 0.6552
vn 0.0000 -0.7071 0.7071
vn -0.0289 -0.7123 0.7013
vn -0.0353 -0.7688 0.6385
vn 0.0927 -0.7497 0.6552
vn 0.0353 -0.7687 0.6386
vn 0.0289 -0.7123 0.7013
vn 0.8591 -0.3599 0.3639
vn 0.7726 -0.4379 0.4597
vn 0.0000 0.7785 0.6277
vn -0.8593 0.3562 -0.3671
vn -0.7728 0.4342 -0.4629
vn 0.0000 -0.7785 -0.6277
vn 0.5494 -0.5642 0.6164
vn -0.5495 0.5605 -0.6196
vn 0.2763 -0.6431 0.7142
vn -0.2764 0.6394 -0.7175
vn -0.0218 -0.6674 0.7444
vn 0.0218 0.6638 -0.7476
vn -0.3179 -0.6350 0.7041
vn 0.3180 0.6313 -0.7074
vn -0.5852 -0.5487 0.5971
vn 0.5854 0.5450 -0.6003
vn -0.7995 -0.4163 0.4330
vn 0.7997 0.4126 -0.4362
vn -0.8805 -0.3361 0.3344
vn 0.8807 0.3324 -0.3375
vn 0.3746 0.5820 -0.7218
vn -0.3338 0.5917 -0.7338
vn 0.0000 -0.9659 -0.2588
vn 0.0000 -0.2588 -0.9659
vn 0.0000 0.9659 0.2588
vn 0.0000 0.2588 0.9659
# 68 vertex normals

vt 0.3957 0.9798 0.0000
vt 0.3756 0.9798 0.0000
vt 0.3756 0.8779 0.0000
vt 0.3957 0.8779 0.0000
vt 0.3522 0.9798 0.0000
vt 0.3522 0.8779 0.0000
vt 0.3222 0.9798 0.0000
vt 0.3222 0.8779 0.0000
vt 0.2825 0.9798 0.0000
vt 0.2825 0.8779 0.0000
vt 0.2296 0.9798 0.0000
vt 0.2296 0.8779 0.0000
vt 0.1604 0.9798 0.0000
vt 0.1604 0.8779 0.0000
vt 0.0054 0.8779 0.0000
vt 0.0054 0.9798 0.0000
vt 0.4015 0.3830 0.0000
vt 0.2995 0.3830 0.0000
vt 0.2995 0.0092 0.0000
vt 0.4015 0.0092 0.0000
vt 0.3781 0.5399 0.0000
vt 0.4015 0.5399 0.0000
vt 0.4015 0.5960 0.0000
vt 0.3781 0.5960 0.0000
vt 0.4015 0.6358 0.0000
vt 0.3781 0.6358 0.0000
vt 0.4015 0.6624 0.0000
vt 0.3781 0.6624 0.0000
vt 0.8877 0.7455 0.0000
vt 0.9206 0.7455 0.0000
vt 0.9206 0.7689 0.0000
vt 0.8877 0.7689 0.0000
vt 0.9582 0.7455 0.0000
vt 0.9983 0.7455 0.0000
vt 0.9983 0.7689 0.0000
vt 0.9582 0.7689 0.0000
vt 0.2995 0.5960 0.0000
vt 0.2995 0.5399 0.0000
vt 0.3227 0.5399 0.0000
vt 0.3227 0.5960 0.0000
vt 0.3227 0.6358 0.0000
vt 0.2995 0.6358 0.0000
vt 0.2995 0.6624 0.0000
vt 0.3227 0.6624 0.0000
vt 0.0054 0.6902 0.0000
vt 0.0054 0.6573 0.0000
vt 0.0286 0.6573 0.0000
vt 0.0286 0.6902 0.0000
vt 0.0054 0.7679 0.0000
vt 0.0054 0.7279 0.0000
vt 0.0286 0.7279 0.0000
vt 0.0286 0.7679 0.0000
vt 0.9808 0.8254 0.0000
vt 0.8240 0.8254 0.0000
vt 0.8240 0.7700 0.0000
vt 0.9808 0.7700 0.0000
vt 0.5740 0.2652 0.0000
vt 0.6759 0.2652 0.0000
vt 0.6759 0.2912 0.0000
vt 0.5740 0.2912 0.0000
vt 0.6759 0.3281 0.0000
vt 0.5740 0.3281 0.0000
vt 0.6759 0.3669 0.0000
vt 0.5740 0.3669 0.0000
vt 0.6759 0.4067 0.0000
vt 0.5740 0.4067 0.0000
vt 0.6759 0.4466 0.0000
vt 0.5740 0.4466 0.0000
vt 0.6759 0.4854 0.0000
vt 0.5740 0.4854 0.0000
vt 0.6759 0.5223 0.0000
vt 0.5740 0.5223 0.0000
vt 0.6759 0.5564 0.0000
vt 0.5740 0.5564 0.0000
vt 0.2995 0.0005 0.0000
vt 0.4015 0.0005 0.0000
vt 0.0069 0.0775 0.0000
vt 0.0410 0.0444 0.0000
vt 0.0779 0.0202 0.0000
vt 0.0005 0.0862 0.0000
vt 0.1167 0.0055 0.0000
vt 0.1565 0.0005 0.0000
vt 0.1964 0.0055 0.0000
vt 0.2352 0.0202 0.0000
vt 0.2721 0.0444 0.0000
vt 0.2981 0.0697 0.0000
vt 0.2981 0.2247 0.0000
vt 0.2950 0.2939 0.0000
vt 0.2836 0.3467 0.0000
vt 0.2707 0.3865 0.0000
vt 0.2545 0.4165 0.0000
vt 0.2362 0.4399 0.0000
vt 0.2168 0.4600 0.0000
vt 0.0483 0.4600 0.0000
vt 0.0410 0.6169 0.0000
vt 0.0453 0.6730 0.0000
vt 0.0615 0.7128 0.0000
vt 0.0873 0.7394 0.0000
vt 0.1202 0.7563 0.0000
vt 0.1578 0.7667 0.0000
vt 0.1979 0.7738 0.0000
vt 0.9069 0.0202 0.0000
vt 0.9438 0.0444 0.0000
vt 0.9779 0.0775 0.0000
vt 0.9843 0.0862 0.0000
vt 0.8681 0.0055 0.0000
vt 0.8283 0.0005 0.0000
vt 0.7885 0.0055 0.0000
vt 0.7496 0.0202 0.0000
vt 0.7127 0.0444 0.0000
vt 0.6867 0.0697 0.0000
vt 0.6867 0.2247 0.0000
vt 0.6898 0.2939 0.0000
vt 0.7012 0.3467 0.0000
vt 0.7141 0.3865 0.0000
vt 0.7303 0.4165 0.0000
vt 0.7486 0.4399 0.0000
vt 0.7680 0.4600 0.0000
vt 0.9365 0.4600 0.0000
vt 0.9438 0.6169 0.0000
vt 0.9395 0.6730 0.0000
vt 0.9233 0.7128 0.0000
vt 0.8975 0.7394 0.0000
vt 0.8646 0.7563 0.0000
vt 0.8270 0.7667 0.0000
vt 0.7869 0.7738 0.0000
vt 0.7095 0.8779 0.0000
vt 0.7095 0.9011 0.0000
vt 0.4038 0.9011 0.0000
vt 0.4038 0.9565 0.0000
vt 0.7095 0.9798 0.0000
vt 0.7095 0.9565 0.0000
vt 0.3227 0.4530 0.0000
vt 0.3781 0.4530 0.0000
vt 0.2701 0.7526 0.0000
vt 0.2968 0.7268 0.0000
vt 0.3365 0.7106 0.0000
vt 0.2532 0.7855 0.0000
vt 0.2429 0.8231 0.0000
vt 0.3926 0.7063 0.0000
vt 0.4795 0.7063 0.0000
vt 0.5414 0.8632 0.0000
vt 0.2358 0.8632 0.0000
vt 0.7118 0.7642 0.0000
vt 0.6956 0.8039 0.0000
vt 0.6699 0.8306 0.0000
vt 0.6370 0.8475 0.0000
vt 0.5993 0.8579 0.0000
vt 0.7161 0.7081 0.0000
vt 0.7161 0.6212 0.0000
vt 0.5593 0.5593 0.0000
vt 0.5593 0.8649 0.0000
vt 0.0295 0.3240 0.0000
vt 0.0350 0.6432 0.0000
vt 0.0066 0.6442 0.0000
vt 0.0054 0.3249 0.0000
vt 0.2105 0.8565 0.0000
vt 0.2009 0.8600 0.0000
vt 0.1865 0.8339 0.0000
vt 0.1947 0.8277 0.0000
vt 0.4101 0.9073 0.0000
vt 0.7280 0.9357 0.0000
vt 0.7257 0.9574 0.0000
vt 0.4073 0.9329 0.0000
vt 0.6399 0.1662 0.0000
vt 0.6367 0.1743 0.0000
vt 0.6127 0.1600 0.0000
vt 0.6182 0.1533 0.0000
vt 0.4203 0.3232 0.0000
vt 0.4073 0.0048 0.0000
vt 0.4318 0.0024 0.0000
vt 0.4411 0.3212 0.0000
vt 0.1650 0.8132 0.0000
vt 0.1709 0.8049 0.0000
vt 0.5638 0.3377 0.0000
vt 0.5521 0.6560 0.0000
vt 0.5332 0.6542 0.0000
vt 0.5416 0.3355 0.0000
vt 0.5941 0.1393 0.0000
vt 0.6013 0.1345 0.0000
vt 0.4618 0.0010 0.0000
vt 0.4665 0.3200 0.0000
vt 0.1383 0.7998 0.0000
vt 0.1414 0.7901 0.0000
vt 0.5102 0.6531 0.0000
vt 0.5144 0.3342 0.0000
vt 0.5825 0.1138 0.0000
vt 0.5908 0.1114 0.0000
vt 0.4946 0.0005 0.0000
vt 0.4942 0.3196 0.0000
vt 0.1087 0.7950 0.0000
vt 0.1089 0.7847 0.0000
vt 0.4851 0.6528 0.0000
vt 0.4847 0.3338 0.0000
vt 0.5789 0.0861 0.0000
vt 0.5875 0.0863 0.0000
vt 0.5271 0.0011 0.0000
vt 0.5218 0.3201 0.0000
vt 0.0791 0.7991 0.0000
vt 0.0762 0.7892 0.0000
vt 0.4601 0.6532 0.0000
vt 0.4553 0.3344 0.0000
vt 0.5837 0.0585 0.0000
vt 0.5919 0.0613 0.0000
vt 0.5565 0.0027 0.0000
vt 0.5467 0.3215 0.0000
vt 0.0520 0.8117 0.0000
vt 0.0463 0.8032 0.0000
vt 0.4375 0.6545 0.0000
vt 0.4287 0.3358 0.0000
vt 0.5964 0.0336 0.0000
vt 0.6034 0.0388 0.0000
vt 0.5800 0.0052 0.0000
vt 0.5666 0.3236 0.0000
vt 0.0300 0.8318 0.0000
vt 0.0220 0.8254 0.0000
vt 0.4195 0.6563 0.0000
vt 0.4073 0.3380 0.0000
vt 0.6159 0.0137 0.0000
vt 0.6211 0.0207 0.0000
vt 0.9995 0.1698 0.0000
vt 0.9754 0.4882 0.0000
vt 0.9465 0.4851 0.0000
vt 0.9750 0.1672 0.0000
vt 0.0150 0.8576 0.0000
vt 0.0054 0.8538 0.0000
vt 0.2523 0.4514 0.0000
vt 0.2551 0.7707 0.0000
vt 0.2327 0.7715 0.0000
vt 0.2260 0.4524 0.0000
vt 0.6404 0.0005 0.0000
vt 0.6433 0.0087 0.0000
vt 0.2796 0.6615 0.0000
vt 0.2701 0.6620 0.0000
vt 0.2856 0.3440 0.0000
vt 0.2937 0.3436 0.0000
vt 0.9904 0.6864 0.0000
vt 0.9857 0.3681 0.0000
vt 0.9954 0.3688 0.0000
vt 0.9986 0.6870 0.0000
vt 0.6325 0.0152 0.0000
vt 0.6712 0.0152 0.0000
vt 0.6906 0.0487 0.0000
vt 0.6712 0.0822 0.0000
vt 0.6325 0.0822 0.0000
vt 0.6132 0.0487 0.0000
vt 0.5740 0.2203 0.0000
vt 0.5740 0.1868 0.0000
vt 0.6235 0.1868 0.0000
vt 0.6235 0.2203 0.0000
vt 0.3676 0.5059 0.0000
vt 0.3289 0.5059 0.0000
vt 0.3289 0.4563 0.0000
vt 0.3676 0.4563 0.0000
vt 0.9841 0.8784 0.0000
vt 0.9506 0.8784 0.0000
vt 0.9506 0.8289 0.0000
vt 0.9841 0.8289 0.0000
vt 0.9171 0.8784 0.0000
vt 0.9171 0.8289 0.0000
vt 0.3676 0.5598 0.0000
vt 0.3289 0.5598 0.0000
vt 0.3289 0.5103 0.0000
vt 0.3676 0.5103 0.0000
vt 0.5740 0.2538 0.0000
vt 0.6235 0.2538 0.0000
vt 0.5002 0.7341 0.0000
vt 0.4808 0.7006 0.0000
vt 0.5002 0.6671 0.0000
vt 0.5389 0.6671 0.0000
vt 0.5582 0.7006 0.0000
vt 0.5389 0.7341 0.0000
# 272 texture coords

g Line004
usemtl WalkerLowerLeg
s 1
f 1/1/1 2/2/2 3/3/2 
f 3/3/2 4/4/1 1/1/1 
s 3
f 2/2/2 5/5/3 6/6/3 
f 6/6/3 3/3/2 2/2/2 
s 2
f 5/5/3 7/7/4 8/8/4 
f 8/8/4 6/6/3 5/5/3 
f 7/7/4 9/9/5 10/10/5 
f 10/10/5 8/8/4 7/7/4 
f 9/9/5 11/11/6 12/12/6 
f 12/12/6 10/10/5 9/9/5 
f 11/11/6 13/13/7 14/14/7 
f 14/14/7 12/12/6 11/11/6 
f 15/15/8 14/14/7 13/13/7 
f 13/13/7 16/16/8 15/15/8 
f 17/17/9 18/18/9 19/19/9 
f 19/19/9 20/20/9 17/17/9 
f 21/21/10 22/22/10 23/23/11 
f 23/23/11 24/24/11 21/21/10 
f 24/24/11 23/23/11 25/25/12 
f 25/25/12 26/26/12 24/24/11 
f 26/26/12 25/25/12 27/27/13 
f 27/27/13 28/28/13 26/26/12 
f 27/29/13 29/30/14 30/31/14 
f 30/31/14 28/32/13 27/29/13 
f 31/33/15 32/34/16 33/35/16 
f 33/35/16 34/36/15 31/33/15 
f 29/30/14 31/33/15 34/36/15 
f 34/36/15 30/31/14 29/30/14 
f 35/37/11 36/38/10 37/39/10 
f 37/39/10 38/40/11 35/37/11 
f 39/41/12 40/42/12 35/37/11 
f 35/37/11 38/40/11 39/41/12 
f 41/43/13 40/42/12 39/41/12 
f 39/41/12 42/44/13 41/43/13 
f 43/45/14 41/46/13 42/47/13 
f 42/47/13 44/48/14 43/45/14 
f 45/49/16 46/50/15 47/51/15 
f 47/51/15 48/52/16 45/49/16 
f 47/51/15 46/50/15 43/45/14 
f 43/45/14 44/48/14 47/51/15 
f 49/53/17 50/54/17 51/55/17 
f 51/55/17 52/56/17 49/53/17 
s 1
f 15/57/18 16/58/18 53/59/19 
f 53/59/19 54/60/19 15/57/18 
f 54/60/19 53/59/19 55/61/20 
f 55/61/20 56/62/20 54/60/19 
f 55/61/20 57/63/21 58/64/21 
f 58/64/21 56/62/20 55/61/20 
f 57/63/21 59/65/22 60/66/22 
f 60/66/22 58/64/21 57/63/21 
f 60/66/22 59/65/22 61/67/23 
f 61/67/23 62/68/23 60/66/22 
f 61/67/23 63/69/24 64/70/24 
f 64/70/24 62/68/23 61/67/23 
f 64/70/24 63/69/24 65/71/25 
f 65/71/25 66/72/25 64/70/24 
f 66/72/25 65/71/25 67/73/26 
f 67/73/26 68/74/26 66/72/25 
f 20/20/27 19/19/27 68/75/26 
f 68/75/26 67/76/26 20/20/27 
s 16
f 67/77/28 65/78/28 63/79/28 
f 20/80/28 67/77/28 63/79/28 
f 20/80/28 63/79/28 61/81/28 
f 20/80/28 61/81/28 59/82/28 
f 20/80/28 59/82/28 57/83/28 
f 20/80/28 57/83/28 55/84/28 
f 20/80/28 55/84/28 53/85/28 
f 20/80/28 53/85/28 16/86/28 
f 20/80/28 16/86/28 13/87/28 
f 20/80/28 13/87/28 11/88/28 
f 20/80/28 11/88/28 9/89/28 
f 20/80/28 9/89/28 7/90/28 
f 20/80/28 7/90/28 5/91/28 
f 20/80/28 5/91/28 2/92/28 
f 20/80/28 2/92/28 1/93/28 
f 17/94/28 20/80/28 1/93/28 
f 22/95/28 17/94/28 1/93/28 
f 23/96/28 22/95/28 1/93/28 
f 25/97/28 23/96/28 1/93/28 
f 27/98/28 25/97/28 1/93/28 
f 29/99/28 27/98/28 1/93/28 
f 31/100/28 29/99/28 1/93/28 
f 31/100/28 1/93/28 32/101/28 
f 64/102/29 66/103/29 68/104/29 
f 64/102/29 68/104/29 19/105/29 
f 62/106/29 64/102/29 19/105/29 
f 60/107/29 62/106/29 19/105/29 
f 58/108/29 60/107/29 19/105/29 
f 56/109/29 58/108/29 19/105/29 
f 54/110/29 56/109/29 19/105/29 
f 15/111/29 54/110/29 19/105/29 
f 14/112/29 15/111/29 19/105/29 
f 12/113/29 14/112/29 19/105/29 
f 10/114/29 12/113/29 19/105/29 
f 8/115/29 10/114/29 19/105/29 
f 6/116/29 8/115/29 19/105/29 
f 3/117/29 6/116/29 19/105/29 
f 4/118/29 3/117/29 19/105/29 
f 4/118/29 19/105/29 18/119/29 
f 4/118/29 18/119/29 36/120/29 
f 4/118/29 36/120/29 35/121/29 
f 4/118/29 35/121/29 40/122/29 
f 4/118/29 40/122/29 41/123/29 
f 4/118/29 41/123/29 43/124/29 
f 4/118/29 43/124/29 46/125/29 
f 4/118/29 46/125/29 45/126/29 
s 4
f 45/127/30 48/128/8 49/129/31 
f 4/4/32 45/127/30 49/129/31 
f 4/4/32 49/129/31 52/130/33 
f 1/1/34 4/4/32 52/130/33 
f 32/131/35 1/1/34 52/130/33 
f 32/131/35 52/130/33 33/132/8 
f 50/133/36 37/39/37 36/38/38 
f 50/133/36 36/38/38 18/18/39 
f 51/134/40 50/133/36 18/18/39 
f 51/134/40 18/18/39 17/17/41 
f 51/134/40 17/17/41 22/22/42 
f 51/134/40 22/22/42 21/21/37 
s 1
f 42/135/28 39/136/28 38/137/28 
f 44/138/28 42/135/28 38/137/28 
f 47/139/28 44/138/28 38/137/28 
f 47/139/28 38/137/28 37/140/28 
f 47/139/28 37/140/28 50/141/28 
f 47/139/28 50/141/28 49/142/28 
f 47/139/28 49/142/28 48/143/28 
f 24/144/29 26/145/29 28/146/29 
f 24/144/29 28/146/29 30/147/29 
f 24/144/29 30/147/29 34/148/29 
f 21/149/29 24/144/29 34/148/29 
f 51/150/29 21/149/29 34/148/29 
f 52/151/29 51/150/29 34/148/29 
f 52/151/29 34/148/29 33/152/29 
s 2
f 69/153/43 70/154/43 71/155/44 
f 71/155/44 72/156/44 69/153/43 
s 4
f 70/157/45 73/158/45 74/159/45 
f 74/159/45 71/160/45 70/157/45 
s 2
f 73/161/46 75/162/46 76/163/47 
f 76/163/47 74/164/47 73/161/46 
s 4
f 75/165/48 69/166/48 72/167/48 
f 72/167/48 76/168/48 75/165/48 
s 2
f 72/169/44 71/170/44 77/171/49 
f 77/171/49 78/172/49 72/169/44 
s 4
f 71/160/45 74/159/45 79/173/45 
f 79/173/45 77/174/45 71/160/45 
s 2
f 74/175/47 76/176/47 80/177/50 
f 80/177/50 79/178/50 74/175/47 
s 4
f 76/168/48 72/167/48 78/179/48 
f 78/179/48 80/180/48 76/168/48 
s 2
f 78/172/49 77/171/49 81/181/51 
f 81/181/51 82/182/51 78/172/49 
s 4
f 77/174/45 79/173/45 83/183/45 
f 83/183/45 81/184/45 77/174/45 
s 2
f 79/178/50 80/177/50 84/185/52 
f 84/185/52 83/186/52 79/178/50 
s 4
f 80/180/48 78/179/48 82/187/48 
f 82/187/48 84/188/48 80/180/48 
s 2
f 82/182/51 81/181/51 85/189/53 
f 85/189/53 86/190/53 82/182/51 
s 4
f 81/184/45 83/183/45 87/191/45 
f 87/191/45 85/192/45 81/184/45 
s 2
f 83/186/52 84/185/52 88/193/54 
f 88/193/54 87/194/54 83/186/52 
s 4
f 84/188/48 82/187/48 86/195/48 
f 86/195/48 88/196/48 84/188/48 
s 2
f 86/190/53 85/189/53 89/197/55 
f 89/197/55 90/198/55 86/190/53 
s 4
f 85/192/45 87/191/45 91/199/45 
f 91/199/45 89/200/45 85/192/45 
s 2
f 87/194/54 88/193/54 92/201/56 
f 92/201/56 91/202/56 87/194/54 
s 4
f 88/196/48 86/195/48 90/203/48 
f 90/203/48 92/204/48 88/196/48 
s 2
f 90/198/55 89/197/55 93/205/57 
f 93/205/57 94/206/57 90/198/55 
s 4
f 89/200/45 91/199/45 95/207/45 
f 95/207/45 93/208/45 89/200/45 
s 2
f 91/202/56 92/201/56 96/209/58 
f 96/209/58 95/210/58 91/202/56 
s 4
f 92/204/48 90/203/48 94/211/48 
f 94/211/48 96/212/48 92/204/48 
s 2
f 94/206/57 93/205/57 97/213/59 
f 97/213/59 98/214/59 94/206/57 
s 4
f 93/208/45 95/207/45 99/215/45 
f 99/215/45 97/216/45 93/208/45 
s 2
f 95/210/58 96/209/58 100/217/60 
f 100/217/60 99/218/60 95/210/58 
s 4
f 96/212/48 94/211/48 98/219/48 
f 98/219/48 100/220/48 96/212/48 
s 2
f 98/221/59 97/222/59 101/223/61 
f 101/223/61 102/224/61 98/221/59 
s 4
f 97/216/45 99/215/45 103/225/45 
f 103/225/45 101/226/45 97/216/45 
s 2
f 99/227/60 100/228/60 104/229/62 
f 104/229/62 103/230/62 99/227/60 
s 4
f 100/220/48 98/219/48 102/231/48 
f 102/231/48 104/232/48 100/220/48 
s 1
f 73/233/63 70/234/63 69/235/63 
f 69/235/63 75/236/63 73/233/63 
f 102/237/64 101/238/64 103/239/64 
f 103/239/64 104/240/64 102/237/64 
f 105/241/29 106/242/29 107/243/29 
f 107/243/29 108/244/29 109/245/29 
f 105/241/29 107/243/29 109/245/29 
f 110/246/29 105/241/29 109/245/29 
s 8
f 109/247/37 108/248/65 111/249/65 
f 111/249/65 112/250/37 109/247/37 
f 108/251/65 107/252/66 113/253/66 
f 113/253/66 111/254/65 108/251/65 
f 107/255/66 106/256/8 114/257/8 
f 114/257/8 113/258/66 107/255/66 
f 106/256/8 105/259/67 115/260/67 
f 115/260/67 114/257/8 106/256/8 
f 105/261/67 110/262/68 116/263/68 
f 116/263/68 115/264/67 105/261/67 
f 110/265/68 109/247/37 112/250/37 
f 112/250/37 116/266/68 110/265/68 
s 1
f 112/267/28 111/268/28 113/269/28 
f 113/269/28 114/270/28 115/271/28 
f 112/267/28 113/269/28 115/271/28 
f 116/272/28 112/267/28 115/271/28 
# 220 faces

