# 3ds Max Wavefront OBJ Exporter v0.97b - (c)2007 guruware
# File Created: 22.11.2017 16:33:53

mtllib WalkerBody-Collision.mtl

#
# object Box003
#

v  -0.6740 -1.4744 0.6362
v  -0.6740 -1.4744 -0.4343
v  -0.4054 -0.4813 -0.4343
v  -0.4054 -0.4813 0.6362
v  0.4276 -0.4813 -0.4343
v  0.4276 -0.4813 0.6362
v  0.6483 -1.4744 -0.4343
v  0.6483 -1.4744 0.6362
v  -0.9957 0.4711 0.2744
v  -0.3130 0.6861 0.6362
v  -0.3130 0.6861 -0.4343
v  -0.9957 0.4711 -0.4343
v  0.3352 0.6861 0.6362
v  0.3352 0.6861 -0.4343
v  1.0535 0.4414 0.5145
v  1.0535 0.4414 -0.4343
# 16 vertices

vn 0.9653 -0.2611 -0.0000
vn 0.6078 -0.7941 -0.0000
vn -0.6257 -0.7800 -0.0000
vn -0.9762 -0.2169 -0.0000
vn -0.3004 0.9538 0.0000
vn -0.1253 0.9921 -0.0000
vn -0.1520 0.9884 0.0000
vn 0.1547 0.9880 0.0000
vn 0.1635 0.9866 -0.0000
vn 0.3225 0.9466 0.0000
vn -0.3938 0.0658 0.9169
vn -0.0000 0.0000 1.0000
vn -0.2007 0.0335 0.9791
vn -0.4866 0.0813 0.8698
vn 0.1010 0.0187 0.9947
vn 0.0714 0.0056 0.9974
vn 0.1448 0.0322 0.9889
vn 0.1653 0.0179 0.9861
vn 0.9784 -0.2069 -0.0000
vn -0.0000 0.0000 -1.0000
vn -0.0000 -0.0000 -1.0000
vn 0.0000 0.0000 -1.0000
vn -0.9866 -0.1631 -0.0000
# 23 vertex normals

vt 1.0000 0.0000 0.0000
vt 1.0000 1.0704 0.0000
vt 0.3518 1.0704 0.0000
vt 0.3518 0.0000 0.0000
vt -0.2964 1.0704 0.0000
vt -0.2964 0.0000 0.0000
vt -0.9446 1.0704 0.0000
vt -0.9446 0.0000 0.0000
vt 0.0000 0.0000 0.0000
vt 0.6482 0.0000 0.0000
vt 0.6482 1.0704 0.0000
vt 0.0000 1.0704 0.0000
vt 1.2964 0.0000 0.0000
vt 1.2964 1.0704 0.0000
vt 1.9446 0.0000 0.0000
vt 1.9446 1.0704 0.0000
vt 0.6482 0.9812 0.0000
vt 0.0000 0.9812 0.0000
vt 1.2964 0.9812 0.0000
vt 1.9446 0.9812 0.0000
vt 1.0704 0.0000 0.0000
vt 1.0704 0.9812 0.0000
# 22 texture coords

o Box003
g Box003
usemtl wire_088144225
s 2
f 1/1/1 2/2/1 3/3/2 
f 3/3/2 4/4/2 1/1/1 
f 4/4/2 3/3/2 5/5/3 
f 5/5/3 6/6/3 4/4/2 
f 6/6/3 5/5/3 7/7/4 
f 7/7/4 8/8/4 6/6/3 
s 4
f 9/9/5 10/10/6 11/11/7 
f 11/11/7 12/12/5 9/9/5 
f 10/10/6 13/13/8 14/14/9 
f 14/14/9 11/11/7 10/10/6 
f 13/13/8 15/15/10 16/16/10 
f 16/16/10 14/14/9 13/13/8 
s 8
f 1/9/11 4/10/12 10/17/13 
f 10/17/13 9/18/14 1/9/11 
f 4/10/12 6/13/15 13/19/16 
f 13/19/16 10/17/13 4/10/12 
f 6/13/15 8/15/17 15/20/18 
f 15/20/18 13/19/16 6/13/15 
s 16
f 8/9/19 7/21/19 16/22/19 
f 16/22/19 15/18/19 8/9/19 
s 32
f 7/9/20 5/10/21 14/17/20 
f 14/17/20 16/18/22 7/9/20 
f 5/10/21 3/13/22 11/19/22 
f 11/19/22 14/17/20 5/10/21 
f 3/13/22 2/15/22 12/20/22 
f 12/20/22 11/19/22 3/13/22 
s 64
f 2/9/23 1/21/23 9/22/23 
f 9/22/23 12/18/23 2/9/23 
# 28 faces

