# 3ds Max Wavefront OBJ Exporter v0.97b - (c)2007 guruware
# File Created: 01.11.2017 17:57:44

mtllib WallGate-Collision.mtl

#
# object Box007
#

v  -2.6358 3.8088 0.7258
v  2.6727 3.8088 0.7258
v  2.6727 3.8088 -0.6974
v  -2.6358 3.8088 -0.6974
v  -2.6358 0.0000 0.7258
v  2.6727 0.0000 0.7258
v  2.6727 0.0000 -0.6974
v  -2.6358 0.0000 -0.6974
# 8 vertices

vn 0.0000 1.0000 -0.0000
vn 0.0000 0.0000 1.0000
vn 1.0000 0.0000 -0.0000
vn 0.0000 0.0000 -1.0000
vn -1.0000 0.0000 -0.0000
# 5 vertex normals

vt 0.0000 0.0000 0.0000
vt 5.3085 0.0000 0.0000
vt 5.3085 1.4232 0.0000
vt 0.0000 1.4232 0.0000
vt 5.3085 3.8088 0.0000
vt 0.0000 3.8088 0.0000
vt 1.4232 0.0000 0.0000
vt 1.4232 3.8088 0.0000
# 8 texture coords

o Box007
g Box007
usemtl wire_088144225
s 4
f 1/1/1 2/2/1 3/3/1 
f 3/3/1 4/4/1 1/1/1 
s 8
f 5/1/2 6/2/2 2/5/2 
f 2/5/2 1/6/2 5/1/2 
s 16
f 6/1/3 7/7/3 3/8/3 
f 3/8/3 2/6/3 6/1/3 
s 32
f 7/1/4 8/2/4 4/5/4 
f 4/5/4 3/6/4 7/1/4 
s 64
f 8/1/5 5/7/5 1/8/5 
f 1/8/5 4/6/5 8/1/5 
# 10 faces

