# 3ds Max Wavefront OBJ Exporter v0.97b - (c)2007 guruware
# File Created: 01.11.2017 17:55:42

mtllib WallCorner.mtl

#
# object Box004
#

v  0.8071 0.0000 0.8263
v  0.8071 0.9409 0.8263
v  0.4619 0.9409 0.8263
v  0.7457 4.4052 -0.7914
v  0.7457 1.0757 -0.7914
v  -0.3830 1.0757 -0.7914
v  -0.8090 0.0000 -0.8553
v  -0.8090 0.9409 -0.8553
v  -0.4638 0.9409 -0.8553
v  -0.7476 4.4052 0.7624
v  -0.7476 1.0757 0.7624
v  0.3811 1.0757 0.7624
v  -0.8161 4.6839 0.7954
v  0.8142 4.6839 0.7954
v  0.8142 4.6839 -0.8245
v  0.8071 0.0000 -0.8553
v  0.8071 0.9409 -0.8553
v  0.8071 0.9409 -0.4962
v  -0.8090 0.0000 0.8263
v  -0.8090 0.9409 0.8263
v  -0.8090 0.9409 0.4671
v  -0.8161 4.6839 -0.8245
v  0.7457 4.4052 0.7624
v  0.7457 1.0757 0.7624
v  0.7457 1.0757 -0.4120
v  -0.7476 4.4052 -0.7914
v  -0.7476 1.0757 -0.7914
v  -0.7476 1.0757 0.3830
v  -0.8161 4.4312 -0.8245
v  -0.8161 4.4312 0.7954
v  0.8142 4.4312 -0.8245
v  0.8142 4.4312 0.7954
v  0.6046 0.9409 -0.8553
v  -0.6065 0.9409 0.8263
v  0.8071 0.9409 0.6155
v  -0.8090 0.9409 -0.6446
# 36 vertices

vn 0.0000 0.0000 1.0000
vn 0.0000 0.1882 0.9821
vn 0.0000 0.2195 0.9756
vn 0.0000 0.0000 -1.0000
vn 0.0000 0.2437 -0.9699
vn 0.0000 0.2195 -0.9756
vn 0.0000 0.1882 -0.9821
vn -0.0000 0.2195 -0.9756
vn 0.0000 -0.0000 1.0000
vn 0.0000 0.2437 0.9699
vn 0.0000 1.0000 -0.0000
vn 1.0000 0.0000 -0.0000
vn 0.9836 0.1804 -0.0000
vn 0.9773 0.2121 0.0000
vn -1.0000 0.0000 -0.0000
vn -0.9836 0.1804 -0.0000
vn -0.9773 0.2121 0.0000
vn 0.0000 -1.0000 -0.0000
vn 0.9717 0.2363 -0.0000
vn 0.9773 0.2121 -0.0000
vn -0.9717 0.2363 -0.0000
vn -1.0000 -0.0000 -0.0000
vn 0.0000 -0.0000 -1.0000
vn 1.0000 -0.0000 -0.0000
vn -0.3546 -0.9350 -0.0000
vn 0.0000 -0.7863 -0.6179
vn 0.3546 -0.9350 -0.0000
vn 0.0000 -0.7863 0.6179
vn -0.9773 0.2121 -0.0000
# 29 vertex normals

vt 0.7771 -0.0953 0.3696
vt 0.7771 -0.0116 0.3696
vt 0.7582 -0.0116 0.3696
vt 0.2229 0.2966 0.4877
vt 0.2229 0.0004 0.4877
vt 0.2896 0.0004 0.4877
vt 0.3111 -0.0953 0.4877
vt 0.3111 -0.0116 0.4877
vt 0.2923 -0.0116 0.4877
vt 0.6889 0.2966 0.3696
vt 0.6889 0.0004 0.3696
vt 0.7555 0.0004 0.3696
vt 0.6848 0.3671 0.3214
vt 0.7811 0.3671 0.3214
vt 0.7811 0.4902 0.3214
vt 0.4877 -0.0953 0.7771
vt 0.4877 -0.0116 0.7771
vt 0.4624 -0.0116 0.7771
vt 0.6304 -0.0953 0.6889
vt 0.6304 -0.0116 0.6889
vt 0.6052 -0.0116 0.6889
vt 0.6848 0.4902 0.3214
vt 0.3111 0.3696 -0.0953
vt 0.2229 0.4877 -0.0953
vt 0.2229 0.3696 -0.0953
vt 0.3696 0.2966 0.7771
vt 0.3696 0.0004 0.7771
vt 0.4588 0.0004 0.7771
vt 0.3111 0.4877 -0.0953
vt 0.5123 0.2966 0.6889
vt 0.5123 0.0004 0.6889
vt 0.6016 0.0004 0.6889
vt 0.5098 0.2989 0.6848
vt 0.6329 0.2989 0.6848
vt 0.6329 0.3214 0.6848
vt 0.7811 0.3214 0.3671
vt 0.6848 0.3214 0.3671
vt 0.6848 0.2989 0.3671
vt 0.3152 0.3214 0.4902
vt 0.2189 0.3214 0.4902
vt 0.2189 0.2989 0.4902
vt 0.3671 0.2989 0.7811
vt 0.4902 0.2989 0.7811
vt 0.4902 0.3214 0.7811
vt 0.5098 0.3214 0.6848
vt 0.3152 0.2989 0.4902
vt 0.7811 0.2989 0.3671
vt 0.3671 0.3214 0.7811
vt 0.3152 0.3671 0.2989
vt 0.3152 0.4902 0.2989
vt 0.3111 0.4877 0.2966
vt 0.2229 0.4877 0.2966
vt 0.2189 0.4902 0.2989
vt 0.2189 0.3671 0.2989
vt 0.2229 0.3696 0.2966
vt 0.3111 0.3696 0.2966
vt 0.7771 0.0004 0.3696
vt 0.7771 0.2966 0.3696
vt 0.2340 -0.0116 0.4877
vt 0.2229 -0.0116 0.4877
vt 0.3111 0.0004 0.4877
vt 0.3111 0.2966 0.4877
vt 0.6999 -0.0116 0.3696
vt 0.6889 -0.0116 0.3696
vt 0.4877 0.0004 0.7771
vt 0.4877 0.2966 0.7771
vt 0.6304 0.0004 0.6889
vt 0.6304 0.2966 0.6889
vt 0.3844 -0.0116 0.7771
vt 0.3696 -0.0116 0.7771
vt 0.5271 -0.0116 0.6889
vt 0.5123 -0.0116 0.6889
vt 0.2229 -0.0953 0.4877
vt 0.6889 -0.0953 0.3696
vt 0.3696 -0.0953 0.7771
vt 0.5123 -0.0953 0.6889
# 76 texture coords

o Box004
g Box004
usemtl walls2
s 1
f 1/1/1 2/2/2 3/3/3 
f 4/4/4 5/5/5 6/6/6 
f 7/7/4 8/8/7 9/9/8 
f 10/10/9 11/11/10 12/12/3 
f 13/13/11 14/14/11 15/15/11 
s 2
f 16/16/12 17/17/13 18/18/14 
f 19/19/15 20/20/16 21/21/17 
s 1
f 15/15/11 22/22/11 13/13/11 
s 4
f 19/23/18 16/24/18 1/25/18 
s 2
f 23/26/12 24/27/19 25/28/20 
s 4
f 19/23/18 7/29/18 16/24/18 
s 2
f 26/30/15 27/31/21 28/32/17 
f 29/33/22 30/34/15 13/35/22 
s 4
f 14/36/9 13/37/1 30/38/9 
f 22/39/23 15/40/23 31/41/23 
s 2
f 32/42/24 31/43/24 15/44/24 
f 13/35/22 22/45/22 29/33/22 
s 4
f 31/41/23 29/46/23 22/39/23 
f 30/38/9 32/47/9 14/36/9 
s 2
f 15/44/24 14/48/24 32/42/24 
s 8
f 30/49/25 29/50/25 26/51/25 
s 16
f 26/51/26 29/50/26 4/52/26 
s 8
f 31/53/27 32/54/27 23/55/27 
s 16
f 32/54/28 10/56/28 23/55/28 
s 8
f 26/51/25 10/56/25 30/49/25 
s 16
f 32/54/28 30/49/28 10/56/28 
s 8
f 23/55/27 4/52/27 31/53/27 
s 16
f 29/50/26 31/53/26 4/52/26 
s 1
f 12/12/3 24/57/10 10/10/9 
f 24/57/10 23/58/9 10/10/9 
f 9/9/8 33/59/6 7/7/4 
f 5/5/5 17/60/7 33/59/6 
f 6/6/6 27/61/5 4/4/4 
f 27/61/5 26/62/4 4/4/4 
f 3/3/3 34/63/3 1/1/1 
f 11/11/10 20/64/2 34/63/3 
s 2
f 25/28/20 5/65/19 23/26/12 
f 5/65/19 4/66/12 23/26/12 
f 28/32/17 11/67/21 26/30/15 
f 11/67/21 10/68/15 26/30/15 
f 18/18/14 35/69/20 16/16/12 
f 24/27/19 2/70/13 35/69/20 
f 21/21/17 36/71/29 19/19/15 
f 27/31/21 8/72/16 36/71/29 
s 1
f 3/3/3 2/2/2 12/12/3 
f 2/2/2 24/57/10 12/12/3 
f 9/9/8 8/8/7 6/6/6 
f 8/8/7 27/61/5 6/6/6 
s 2
f 18/18/14 17/17/13 25/28/20 
f 17/17/13 5/65/19 25/28/20 
f 21/21/17 20/20/16 28/32/17 
f 20/20/16 11/67/21 28/32/17 
s 1
f 9/9/8 5/5/5 33/59/6 
f 6/6/6 5/5/5 9/9/8 
f 33/59/6 17/60/7 7/7/4 
f 17/60/7 16/73/4 7/7/4 
f 3/3/3 11/11/10 34/63/3 
f 12/12/3 11/11/10 3/3/3 
f 34/63/3 20/64/2 1/1/1 
f 20/64/2 19/74/1 1/1/1 
s 2
f 18/18/14 24/27/19 35/69/20 
f 25/28/20 24/27/19 18/18/14 
f 35/69/20 2/70/13 16/16/12 
f 2/70/13 1/75/12 16/16/12 
f 21/21/17 27/31/21 36/71/29 
f 28/32/17 27/31/21 21/21/17 
f 36/71/29 8/72/16 19/19/15 
f 8/72/16 7/76/15 19/19/15 
# 68 faces

